<?xml version="1.0" encoding="utf-8"?>
<!-- Generator: Adobe Illustrator 25.2.1, SVG Export Plug-In . SVG Version: 6.00 Build 0)  -->
<svg version="1.1" id="Capa_1" xmlns="http://www.w3.org/2000/svg" xmlns:xlink="http://www.w3.org/1999/xlink" x="0px" y="0px"
	 viewBox="0 0 500 402.15" style="enable-background:new 0 0 500 402.15;" xml:space="preserve">
<style type="text/css">
	.st0{fill:#5D5C60;}
	.st1{fill:#E0E2E5;}
	.st2{fill:#BFC0C8;}
	.st3{fill:#5C5C60;}
	.st4{fill:#86858A;}
	.st5{fill:#CFAAA9;}
	.st6{fill:#FFFFFF;}
	.st7{fill:#AEADB3;}
	.st8{fill:#1F140F;}
	.st9{fill:#737377;}
	.st10{fill:#9A989D;}
	.st11{fill:#ECF5FA;}
	.st12{fill:#065373;}
	.st13{fill:#0B819A;}
	.st14{fill:#023844;}
	.st15{fill:#036D8D;}
	.st16{fill:#048199;}
</style>
<g>
	<g>
		<g>
			<path class="st0" d="M207.1,258.62c-6.13-13.26-35.37-13.49-71.23-2.34c1.87-1.64,21.57-2.72,23.41-4.39
				c-0.82-1.8-21.38-2.92-22.84-1.58l2.35,0.43c-10.68-0.83-21.5,0.37-31.74,3.52c5.43,1.76,10.85,3.52,16.28,5.28
				c-13.45-1.62-25.97-1.04-40,4.74c6.21,1.19,9.91,0.83,17.21,2.91c-11.34-0.32-22.56,2.84-32.31,8.65
				c4.51-0.16,9.04,0.18,13.48,1.01c-14.18,0.28-26.5,6.59-38.84,14.67c7.83-0.33,12.52-2.93,20.35-2.53
				c-12.28,0.52-24.75,13.05-34.38,20.69c5.93,0.05,12.17-4.17,18.05-5.3c-16.02,14.32-23.93,28.09-19.64,37.37
				c7.94,17.18,54.64,12.49,104.31-10.46C181.21,308.33,215.04,275.8,207.1,258.62z M84.1,276.85c1.37-0.41,2.43-1.25,3.13,0.01
				c-0.1,0.05-0.19,0.1-0.29,0.16C85.99,276.93,85.04,276.88,84.1,276.85z"/>
		</g>
	</g>
	<g>
		<path class="st1" d="M385.89,176.94c0,0,22.96-17.66,25.38-23.64s6.96-34.82,8.58-37.31c1.62-2.5,18.56-14.38,23.34-14.54
			c4.78-0.17,29.22,2.53,33.26,5.84s-18.32,15.02-20.01,18.15c-5.78,10.68-6.84,14.55-3.62,13.48c3.22-1.07,10.75-8.82,16.04-11.04
			c12.94-5.44,19.43-2.42,21.25,0.52c1.82,2.95-4.29,27.52-20.67,38.47c-5.92,3.96-16.96,2.4-21.83,5.43
			c-4.87,3.03-31.15,25.88-39.94,47.52s-44.02-11.98-42.41-12.57C366.88,206.67,385.89,176.94,385.89,176.94z"/>
	</g>
	<g>
		<path class="st2" d="M421.83,118.96c3.13-0.43,6.5,0.09,9.46,1.86c1.46,0.9,2.76,2.18,3.68,3.7c0.96,1.51,1.49,3.24,1.78,4.95
			c0.27,1.8,0.28,3.26,0.44,4.77c0.07,0.75,0.15,1.5,0.25,2.23c0.08,0.74,0.22,1.45,0.36,2.16c0.06,0.36,0.16,0.7,0.24,1.03
			c0.09,0.33,0.16,0.68,0.27,1c0.23,0.63,0.44,1.28,0.76,1.84c0.58,1.16,1.3,2.19,2.29,3.02l0.35,0.33l0.4,0.29
			c0.27,0.19,0.52,0.4,0.81,0.58c0.6,0.33,1.15,0.72,1.82,1l0.96,0.47c0.33,0.15,0.67,0.27,1.01,0.41c0.34,0.13,0.67,0.27,1.02,0.4
			l1.06,0.36l1.06,0.36l1.09,0.31l2.22,0.65c1.53,0.43,3.05,0.92,4.57,1.48c0.76,0.28,1.51,0.57,2.26,0.91
			c0.75,0.31,1.49,0.69,2.22,1.08c1.45,0.81,2.88,1.77,4.05,3.05c1.17,1.29,1.99,2.88,2.36,4.48c0.39,1.6,0.47,3.19,0.45,4.77
			c-0.47-1.51-0.94-3.01-1.62-4.35c-0.68-1.34-1.56-2.47-2.7-3.3c-2.26-1.67-5.16-2.53-8.08-3.28c-1.47-0.37-2.96-0.7-4.46-1.01
			c-0.74-0.15-1.52-0.32-2.31-0.5l-1.18-0.27l-1.18-0.33l-1.18-0.34c-0.39-0.13-0.78-0.28-1.18-0.41c-0.39-0.14-0.79-0.27-1.18-0.43
			l-1.17-0.52c-0.78-0.32-1.53-0.81-2.3-1.23c-0.37-0.23-0.73-0.52-1.1-0.77l-0.55-0.4c-0.17-0.15-0.34-0.31-0.51-0.46
			c-1.39-1.2-2.51-2.78-3.28-4.43c-0.79-1.66-1.2-3.38-1.47-5.04c-0.12-0.84-0.23-1.67-0.27-2.48c-0.08-0.82-0.09-1.63-0.1-2.44
			c-0.05-1.6,0.07-3.28,0.01-4.58c-0.11-2.77-1.14-5.39-3.27-7.29C427.88,120.66,424.92,119.51,421.83,118.96z"/>
	</g>
	<g>
		<path class="st3" d="M261.4,247.25c2.18,0.4,3.71,2.3,5.02,4.08c6.75,9.18,12.98,18.74,18.68,28.61
			c-3.76-1.58-7.26-3.78-10.31-6.48c10.38,7.68,19.6,16.94,27.23,27.35c-5.36-0.87-10.52-2.94-14.99-6.01
			c9.97,8.3,17.48,19.52,21.34,31.91c-4.35-2.08-8.69-4.17-13.04-6.25c6.92,9.96,10.07,22.48,8.69,34.53
			c-4.47-2.65-8.67-5.75-12.52-9.24c-0.35,5.75-0.71,11.59-2.57,17.05c-1.86,5.46-5.42,10.59-10.63,13.05
			c-1.28-2.46-2.56-4.91-3.85-7.37c-2.78,4.51-6.6,8.37-11.09,11.18c-0.61,0.38-1.29,0.76-2,0.65c-1.11-0.17-1.7-1.38-2.09-2.44
			c-1.23-3.28-2.45-6.56-3.68-9.84c-2.54,2.66-5.09,5.33-7.63,7.99c-0.99,1.03-2.38,2.16-3.68,1.57c-0.81-0.36-1.21-1.26-1.54-2.08
			c-1.73-4.42-3.11-8.97-4.13-13.6c-4.13,3.3-8.27,6.6-12.4,9.9c-1.18,0.94-2.84,1.91-4.07,1.03c-0.75-0.53-0.95-1.54-1.1-2.44
			c-0.62-3.81-1.25-7.63-1.87-11.44c-2.41,2.7-4.82,5.4-7.23,8.1c-2.54-6.95-5.09-13.96-6.19-21.27c-1.1-7.32-0.67-15.05,2.55-21.71
			c1.42-2.94,3.41-5.8,3.47-9.06c0.06-3.44-2.02-6.49-3.46-9.62c-4.58-9.96-2.72-21.55-0.76-32.33
			c2.14-11.84,4.43-24.03,10.99-34.11c6.75-10.35,17.9-17.72,30.07-19.86c0.91-0.16,1.85-0.29,2.73,0c1.04,0.34,1.81,1.21,2.51,2.06
			c8.47,10.36,13.95,23.14,15.63,36.41"/>
	</g>
	<g>
		<path class="st3" d="M426.68,204.43c5.24-3.13,10.01-6.87,13.63-11.76c-3.02,0.32-6.03,0.68-9.04,1.08
			c0.59-1.52,1.14-3.01,1.64-4.46c6.3-4.02,11.88-9.17,16.32-15.19c-4.44,1.47-8.89,2.93-13.33,4.4c0.17-0.89,0.33-1.75,0.45-2.59
			c4.75-4.71,9.06-9.9,10.94-16.25c-3.77,1.7-7.54,3.39-11.31,5.09c-0.63-2.03-1.65-3.67-3.08-4.86c-2.58-2.16-6.33-2.75-11.03-1.95
			c0.09-0.55,0.18-1.11,0.27-1.66c-1.65,0.84-3.26,1.78-4.82,2.79c-4.05,1.27-8.62,3.35-13.63,6.16c0.62-1.87,1.38-3.7,2.29-5.45
			c-6.81,3.49-13.85,7.17-18.48,13.25c-1.28,1.68-2.36,3.52-3.44,5.35c-1.3,0.99-2.61,2.01-3.94,3.06
			c0.76-4.04,1.66-8.04,2.73-12.01c-5.15,4.48-9.37,10.01-12.35,16.16c-0.96,1.98-1.79,4.03-2.63,6.06
			c-1.44,1.26-2.89,2.55-4.35,3.87c0.6-4.61,1.48-9.19,2.64-13.7c-5.86,3.81-10.13,9.7-13.1,16.03c-1.74,3.72-3.07,7.61-4.22,11.56
			c-0.77,0.76-1.53,1.52-2.3,2.29c-0.03-4-0.06-8-0.09-12c-4.96,7.57-8.93,15.78-11.82,24.36c-3.01,3.22-6.03,6.54-9.05,9.94
			c-0.87-3.58-1.84-7.14-2.92-10.66c-0.49,5.47-1.19,10.92-2.06,16.34c-1.85,2.14-3.71,4.31-5.56,6.51
			c-0.82-1.88-1.64-3.77-2.45-5.65c-2.72,4.64-4.03,9.88-5.36,15.13c-2.3,2.85-4.54,5.68-6.73,8.51c-0.49-2.42-0.98-4.83-1.47-7.25
			c-1.98,3.45-10.93,9.78-11.75-0.12c0,0-9.29,6.06-13.21,5.78c-9.53-0.69-19.31-5.18-20.64-1.65
			c-33.73,47.39-16.81,109.35-4.8,119.39c10.81,9.04,41.97-9.29,77.73-43.39c15.37-1.67,30.51-5.39,44.89-11.06
			c-11.38,1.92-23.03,2.2-34.49,0.84c0.01-0.01,0.01-0.01,0.02-0.02c7.74-2.61,15.88-3.88,23.68-6.31
			c7.82-2.43,15.56-6.23,20.57-12.71c-8.22,3.25-16.98,5.14-25.81,5.57c9.83-5.71,18.24-13.82,24.32-23.42
			c-4.32,1.36-8.65,2.73-12.97,4.09c0.34-0.41,0.68-0.81,1.02-1.22c10.32-5.57,19.57-13.11,27.09-22.11
			c-3.61,0.59-7.22,1.19-10.84,1.78c1.28-1.68,2.54-3.35,3.79-5.02c8.81-6.21,16.21-14.44,21.32-23.94
			c-1.73,0.29-3.45,0.63-5.17,0.99c0.44-0.66,0.88-1.33,1.31-1.99c10.64-5.92,19.3-15.73,27.36-25.17c-3.45,0.4-6.89,0.93-10.3,1.57
			c6.91-2.09,13.43-5.03,18.62-9.95c-5.8,1.45-11.71,2.41-17.67,2.88C424.36,209.27,425.56,206.82,426.68,204.43z"/>
	</g>
	<g>
		<g>
			<path class="st0" d="M160.98,191.91c0,0-4.23,54.54-14.1,61.13l9.87-6.58c0,0-8.46,23.98-9.87,25.86
				c-1.41,1.88,10.81-7.7,10.81-7.7s-7.75,18.05-10.93,21.34c-3.18,3.29,9.05-1.88,9.05-1.88s-10.69,14.58-9.57,20.22
				c1.11,5.64-3.12,12.7-3.12,12.7l11.75-8.93c0,0-4.17,12.75,2.45,15.3c6.62,2.55,86.31,19.86,112.79-5.35c0,0-0.51-8.91,2.29-7.13
				c2.8,1.78,6.62,5.09,6.62,5.09s-3.82-7.13-3.56-13.75c0.25-6.62-6.62-18.59-6.62-18.59l6.37,3.82c0,0-10.44-18.43-9.17-22.84
				l7.13,6.8c0,0-7.38-15.79-8.15-21.39l7.13,4.33c0,0-9.42-35.71-7.38-62.44"/>
			<path class="st1" d="M188.93,329.37c0,0-1.66-22.51,2.51-27.72c4.17-5.22,2.78-14.95,3.13-18.43c0.35-3.48,8-8,8.7-12.87
				c0.7-4.87,12.87-8.35,14.26-3.83c1.39,4.52,8.69,7.3,10.08,13.91c1.39,6.61,0.35,12.41,3.13,16.47
				c2.78,4.06,3.83,8.23,4.17,15.18c0.35,6.96,1.29,18.58,1.29,18.58S213.13,333.46,188.93,329.37"/>
			<path class="st4" d="M182.06,252.48c0,0,7.42,13.81,6.54,21.41c-3.12,26.75,4.25,1.89,6.39,1.89c4.09,0,0.64,22.46,0.64,24.8
				c0,2.34,6.26-9.34,6.26-9.34s0.16,14.88,1.38,17.88c1.5,3.69,1.4-14.61,3.14-15.54c1.74-0.94,6.09,9.65,7.82,12.45
				c1.74,2.8-0.69-10.77,0.23-18.41c0.45-3.76,4.02,8.53,5.06,10.4c1.04,1.87,1.85-17.98,2.89-19.38c1.04-1.4,2.09,18.68,2.09,20.08
				s2.43-23.85,3.48-26.63c1.04-2.78,3.48,6.09,3.48,7.49c0,1.4,1.39-22.41,3.48-23.35C237.01,255.28,211.66,227.18,182.06,252.48"
				/>
			<path class="st1" d="M272.75,167.95l9.34,4.8c-0.55-2.1,3.93-8.25,18.16-9.61c-19.85-4.9-2.34-2.74,4.61-7.11
				c-4.84,0-10.35-1.46-14.75-2.43c5.59-2.75,17.89,0.25,22.31-7.61c-3.47,1.51-11.98,0.69-14.12-0.89
				c20.68-14.19,27.46-28.42,40.88-49.61c6.72-10.61,14.17-27.31,14.01-27.44c-3.06-2.49-12.08,3.81-16.99,6.07
				c-13.56,6.23-24.3,13.58-38.68,17.56c-7.3,2.02-14.99,2.06-22.49,3.16c-7.5,1.1-15.24,3.52-20.3,9.16c0,0-16.15,8.14-7.86,11.93
				c8.3,3.79,17.77,1.32,21.28,17.43c3.52,16.12,3.37,29.49,3.04,31.17C270.86,166.18,272.75,167.95,272.75,167.95"/>
			<path class="st0" d="M272.75,167.95l9.42,4.64l-0.25,0.2c-0.12-0.51-0.01-1.01,0.16-1.45c0.17-0.45,0.41-0.86,0.68-1.25
				c0.55-0.77,1.21-1.43,1.93-2.02c1.44-1.18,3.09-2.07,4.79-2.8c3.42-1.43,7.08-2.18,10.73-2.58l-0.06,0.89
				c-1.97-0.48-3.94-0.97-5.9-1.55c-0.98-0.31-1.95-0.57-2.95-1.09c-0.13-0.07-0.26-0.15-0.4-0.28c-0.07-0.07-0.15-0.14-0.22-0.29
				c-0.08-0.13-0.11-0.4-0.02-0.58c0.18-0.35,0.37-0.39,0.5-0.48c0.15-0.08,0.28-0.13,0.42-0.17c0.53-0.17,1.03-0.27,1.54-0.37
				c2.01-0.38,4-0.67,5.95-1.13c1.94-0.46,3.88-1.03,5.51-2.05l0.28,0.97c-2.55,0-5.07-0.35-7.54-0.81
				c-2.47-0.46-4.91-1.04-7.34-1.57l-1.7-0.37l1.57-0.74c2-0.94,4.1-1.17,6.13-1.4c2.04-0.21,4.06-0.35,6.05-0.65
				c1.98-0.3,3.93-0.73,5.67-1.57c1.74-0.83,3.21-2.13,4.13-3.79l0.87,0.96c-1.25,0.52-2.5,0.69-3.75,0.8
				c-1.24,0.1-2.48,0.09-3.71,0.02c-1.23-0.07-2.46-0.21-3.68-0.45c-0.61-0.12-1.22-0.26-1.83-0.45c-0.61-0.2-1.22-0.41-1.86-0.85
				l-0.85-0.6l0.88-0.61c6.89-4.77,13.26-10.28,18.65-16.68c5.43-6.37,9.95-13.47,14.38-20.63c2.22-3.58,4.41-7.19,6.65-10.76
				c2.28-3.54,4.34-7.17,6.31-10.88c1.96-3.71,3.83-7.48,5.62-11.28c0.89-1.9,1.78-3.82,2.58-5.73l0.14-0.35
				c0.04-0.11,0.09-0.25,0.1-0.29c0,0,0-0.01-0.01,0.06c-0.21-0.11,0.49,1.26,0.31,0.79l-0.05-0.03c-0.03-0.03-0.07-0.04-0.1-0.07
				c-0.07-0.04-0.15-0.08-0.22-0.11c-0.32-0.13-0.74-0.17-1.18-0.15c-0.9,0.05-1.87,0.33-2.81,0.67c-1.9,0.7-3.75,1.66-5.6,2.65
				c-1.85,0.99-3.67,2.04-5.61,2.99c-3.85,1.76-7.57,3.64-11.32,5.59c-7.46,3.88-14.99,7.88-23.06,10.64
				c-2.02,0.68-4.04,1.31-6.12,1.83c-2.08,0.52-4.19,0.88-6.3,1.17c-4.22,0.57-8.43,0.85-12.59,1.33
				c-4.16,0.47-8.28,1.21-12.18,2.61c-3.88,1.4-7.54,3.52-10.3,6.55l-0.08,0.09l-0.1,0.05c-1.51,0.77-3,1.64-4.42,2.58
				c-1.42,0.94-2.79,1.96-3.94,3.16c-0.57,0.6-1.08,1.25-1.38,1.94c-0.3,0.7-0.3,1.38,0.11,1.94c0.4,0.57,1.11,1,1.85,1.33
				c0.77,0.35,1.56,0.64,2.37,0.92c3.22,1.09,6.72,1.62,9.93,3.19c1.59,0.79,3.07,1.86,4.26,3.2c1.2,1.33,2.12,2.87,2.83,4.48
				c0.71,1.61,1.23,3.29,1.63,4.99c0.21,0.85,0.37,1.7,0.54,2.55c0.17,0.85,0.34,1.7,0.48,2.56c0.61,3.42,1.1,6.85,1.46,10.3
				c0.36,3.45,0.61,6.91,0.69,10.37c0.03,1.73,0.04,3.46-0.05,5.2c0,0.87-0.35,1.73-0.02,2.56
				C271.62,166.61,272.15,167.33,272.75,167.95 M272.75,167.95c-0.62-0.6-1.15-1.31-1.46-2.13c-0.15-0.41-0.22-0.86-0.15-1.29
				c0.06-0.42,0.08-0.86,0.1-1.29c0.05-1.73,0.01-3.46-0.06-5.18c-0.17-3.45-0.45-6.9-0.87-10.33c-0.42-3.43-0.96-6.85-1.63-10.24
				c-0.16-0.85-0.34-1.69-0.52-2.54c-0.18-0.84-0.36-1.69-0.57-2.52c-0.42-1.66-0.96-3.29-1.67-4.84c-0.7-1.55-1.61-2.99-2.76-4.22
				c-1.14-1.23-2.53-2.21-4.04-2.94c-3.05-1.46-6.51-1.96-9.85-3.04c-0.84-0.27-1.67-0.57-2.48-0.93c-0.82-0.36-1.69-0.82-2.31-1.67
				c-0.3-0.42-0.51-0.95-0.53-1.49c-0.03-0.54,0.1-1.05,0.28-1.5c0.38-0.91,0.97-1.63,1.58-2.29c1.24-1.31,2.66-2.38,4.11-3.37
				c1.46-0.98,2.95-1.88,4.52-2.7l-0.18,0.14c2.9-3.25,6.74-5.51,10.75-7.01c4.03-1.5,8.26-2.3,12.47-2.81
				c4.21-0.52,8.42-0.8,12.56-1.39c2.07-0.29,4.12-0.65,6.13-1.16c2-0.51,4.01-1.15,5.98-1.82c7.91-2.73,15.33-6.71,22.8-10.63
				c3.73-1.96,7.53-3.89,11.34-5.65c3.7-1.83,7.27-4.19,11.36-5.74c1.03-0.37,2.11-0.71,3.32-0.78c0.6-0.03,1.26,0.01,1.93,0.27
				c0.16,0.07,0.33,0.14,0.48,0.24c0.08,0.05,0.16,0.09,0.23,0.15l0.11,0.08c-0.15-0.45,0.57,0.95,0.34,0.88
				c-0.02,0.1-0.03,0.12-0.03,0.15c-0.06,0.21-0.11,0.31-0.16,0.45l-0.15,0.38c-0.83,1.98-1.71,3.89-2.61,5.81
				c-1.8,3.83-3.69,7.61-5.68,11.35c-1.98,3.73-4.1,7.44-6.39,10.98l-6.69,10.73c-4.46,7.15-9.05,14.32-14.6,20.78
				c-5.52,6.48-12.01,12.1-19.03,16.86l0.02-1.2c0.35,0.26,0.89,0.48,1.42,0.64c0.54,0.17,1.1,0.31,1.67,0.42
				c1.14,0.23,2.32,0.37,3.49,0.45c1.17,0.08,2.35,0.09,3.52,0.01c1.15-0.09,2.33-0.26,3.31-0.67l1.83-0.75l-0.96,1.71
				c-1.07,1.91-2.81,3.42-4.75,4.31c-1.94,0.92-4.02,1.35-6.06,1.65c-2.05,0.29-4.09,0.41-6.1,0.61c-2,0.21-4.02,0.44-5.73,1.24
				l-0.13-1.11c2.44,0.56,4.86,1.16,7.29,1.63c2.43,0.47,4.88,0.84,7.33,0.86l1.84,0.01l-1.56,0.95c-1.83,1.12-3.85,1.68-5.84,2.14
				c-2,0.46-4.02,0.74-6,1.1c-0.49,0.09-0.98,0.19-1.42,0.33c-0.11,0.03-0.21,0.08-0.29,0.11c-0.08,0.03-0.13,0.11-0.06,0
				c0.03-0.06,0.02-0.19,0-0.21c-0.02-0.03-0.01-0.01,0.01,0.01c0.04,0.04,0.13,0.1,0.22,0.15c0.79,0.42,1.8,0.72,2.74,1.02
				c1.93,0.58,3.89,1.08,5.85,1.57l2.6,0.65l-2.66,0.23c-3.61,0.31-7.21,0.95-10.58,2.26c-1.68,0.67-3.3,1.5-4.72,2.6
				c-0.71,0.55-1.36,1.17-1.9,1.89c-0.26,0.36-0.49,0.74-0.66,1.14c-0.17,0.4-0.26,0.84-0.18,1.23l0.08,0.38l-0.33-0.18
				L272.75,167.95z"/>
			<path class="st5" d="M276.03,139.39c5.72-1.96,11.18-4.84,15.48-9.09c-2.74-0.25-5.48-0.51-8.22-0.76
				c5.76-1.19,11.19-3.89,15.61-7.76c-2.16-1.13-4.67-1.59-7.09-1.3c10.45-7.38,19.77-16.35,27.57-26.49
				c3-3.91,5.87-8.08,9.97-10.81c1.56-1.04,4.93-2.79,6.73-3.31c2.14-0.63,6.03-1.28,6.03-1.28s-8.8,28.53-45.08,59.19
				c-36.28,30.66-30.07,9.9-30.07,9.9S264.54,143.33,276.03,139.39"/>
			<path class="st0" d="M276.03,139.39c2.87-0.96,5.62-2.24,8.16-3.83c2.55-1.59,4.88-3.49,6.97-5.62l0.31,0.86l-8.23-0.61
				l-4.43-0.33l4.35-0.96c2.81-0.62,5.54-1.62,8.09-2.92c2.56-1.3,4.95-2.93,7.09-4.83l0.17,1.38c-2.02-1.02-4.35-1.46-6.59-1.18
				l-3.43,0.43l2.82-2.01c2.25-1.61,4.45-3.29,6.6-5.03c2.15-1.74,4.25-3.54,6.29-5.41c4.06-3.76,7.93-7.73,11.51-11.96
				c1.8-2.11,3.51-4.27,5.23-6.48c1.72-2.2,3.56-4.37,5.71-6.22c1.07-0.93,2.25-1.75,3.48-2.44c1.23-0.7,2.5-1.31,3.81-1.83
				c2.61-1.03,5.38-1.68,8.17-1.81c-2.77,0.36-5.45,1.16-7.96,2.3c-2.5,1.17-4.87,2.64-6.86,4.5c-2.01,1.86-3.69,4.05-5.35,6.27
				c-1.64,2.23-3.32,4.5-5.08,6.67c-3.55,4.33-7.37,8.46-11.49,12.27c-2.05,1.91-4.17,3.75-6.35,5.52
				c-2.18,1.76-4.42,3.45-6.72,5.07l-0.61-1.58c2.6-0.3,5.28,0.18,7.58,1.42l1.09,0.58l-0.93,0.8c-2.28,1.97-4.82,3.63-7.52,4.94
				c-2.7,1.31-5.58,2.26-8.52,2.82l-0.07-1.29l8.21,0.91l1.09,0.12l-0.78,0.74c-2.22,2.12-4.73,3.91-7.39,5.39
				C281.81,137.52,278.97,138.66,276.03,139.39"/>
			<path class="st1" d="M99.78,163.51c-3.41-0.47-6.81-0.93-10.22-1.4c-6.12-0.84-12.39-1.72-17.79-4.72
				c-4.38-2.43-7.91-6.11-11.27-9.82c-2.21-2.44-4.52-5.41-4-8.66c0.49-3.04,3.41-5.18,6.4-5.88c2.99-0.7,6.12-0.29,9.19-0.16
				c11.07,0.49,22.04-2.62,32.16-7.14c10.12-4.52,19.53-10.43,29.15-15.94c2.16-1.24,4.34-2.46,6.7-3.24
				c3.06-1.01,6.32-1.24,9.54-1.46c3.92-0.27,13.93,2.9,17.53,4.48c0,0-0.67-1.39-7.52,3.94c-6.85,5.33-16.56,18.29-13.77,43.08
				C148.66,181.39,107.87,164.61,99.78,163.51"/>
			<path class="st0" d="M99.78,163.51l-10.77-1.45c-3.59-0.48-7.18-1.01-10.68-1.98c-3.5-0.95-6.87-2.47-9.78-4.66
				c-2.93-2.17-5.47-4.79-7.93-7.45c-1.23-1.33-2.45-2.71-3.35-4.33c-0.44-0.81-0.8-1.68-0.98-2.61c-0.18-0.92-0.17-1.9,0.08-2.82
				c0.25-0.92,0.73-1.77,1.33-2.49c0.61-0.72,1.35-1.32,2.15-1.81c1.6-1,3.48-1.46,5.31-1.61c1.84-0.15,3.68-0.04,5.49,0.05
				c1.8,0.1,3.59,0.11,5.39,0.05c3.59-0.15,7.16-0.64,10.67-1.42c7.02-1.56,13.77-4.2,20.24-7.35c6.49-3.14,12.71-6.83,18.96-10.48
				c3.14-1.83,6.22-3.68,9.44-5.45c1.62-0.87,3.34-1.66,5.16-2.19c1.82-0.52,3.67-0.81,5.5-0.99c0.92-0.09,1.83-0.16,2.74-0.22
				c0.45-0.03,0.89-0.07,1.42-0.07c0.5-0.01,0.97,0.04,1.45,0.08c1.88,0.22,3.67,0.62,5.45,1.07c1.78,0.46,3.53,0.98,5.26,1.55
				c1.74,0.57,3.46,1.18,5.17,1.92l-1.04,1.08c0.09,0.16,0.09,0.14,0.13,0.19c0.04,0.03,0.04,0.04,0.07,0.06
				c0.05,0.03,0.05,0.03,0.08,0.04c0.03,0.01,0.02,0.01,0.01,0.01c-0.04,0-0.14,0.01-0.23,0.02c-0.21,0.04-0.45,0.12-0.68,0.22
				c-0.48,0.2-0.98,0.45-1.46,0.74c-0.97,0.56-1.92,1.21-2.84,1.88l-1.39,1.03l-1.32,1.07l-1.25,1.15l-1.19,1.23
				c-1.53,1.69-2.91,3.52-4.11,5.47c-1.16,1.97-2.23,4.01-3.03,6.16c-1.68,4.28-2.68,8.82-3.13,13.42
				c-0.44,4.6-0.35,9.25,0.09,13.87c0.22,2.33,0.2,4.77-0.66,7.01c-0.42,1.11-1.05,2.16-1.87,3.03c-0.81,0.88-1.81,1.56-2.87,2.08
				c-2.14,1.03-4.5,1.42-6.82,1.55c-2.34,0.12-4.67-0.02-6.99-0.29c-4.63-0.56-9.18-1.61-13.69-2.78c-2.25-0.59-4.49-1.22-6.73-1.86
				l-3.37-0.94C102.06,163.98,100.93,163.68,99.78,163.51 M99.78,163.51c1.15,0.17,2.28,0.47,3.41,0.76l3.37,0.92
				c2.24,0.63,4.48,1.25,6.74,1.83c4.5,1.17,9.06,2.17,13.69,2.67c2.31,0.24,4.64,0.36,6.95,0.21c2.3-0.15,4.63-0.58,6.68-1.62
				c1.02-0.52,1.97-1.19,2.72-2.04c0.76-0.84,1.34-1.84,1.72-2.91c0.77-2.15,0.76-4.51,0.5-6.78c-0.53-4.64-0.71-9.34-0.35-14.01
				c0.36-4.67,1.29-9.33,2.94-13.75c0.79-2.22,1.84-4.35,3.01-6.41c1.2-2.04,2.6-3.97,4.16-5.76c0.41-0.43,0.8-0.88,1.22-1.31
				l1.29-1.24l1.37-1.16c0.47-0.36,0.93-0.73,1.4-1.07c0.95-0.7,1.92-1.38,2.96-2c0.52-0.31,1.06-0.6,1.65-0.85
				c0.3-0.12,0.61-0.23,0.98-0.31c0.19-0.03,0.39-0.06,0.63-0.05c0.13,0.01,0.26,0.02,0.43,0.08c0.09,0.04,0.16,0.06,0.27,0.13
				c0.06,0.04,0.09,0.06,0.16,0.12c0.06,0.08,0.09,0.08,0.2,0.27l1.08,1.97l-2.12-0.89c-1.62-0.68-3.33-1.27-5.04-1.81
				c-1.71-0.54-3.44-1.03-5.18-1.47c-1.73-0.43-3.49-0.81-5.21-1c-0.42-0.03-0.86-0.08-1.26-0.07c-0.38-0.01-0.85,0.03-1.3,0.07
				c-0.9,0.06-1.79,0.14-2.68,0.23c-1.77,0.19-3.52,0.46-5.18,0.95c-1.66,0.49-3.25,1.22-4.82,2.06c-3.14,1.71-6.27,3.57-9.4,5.38
				c-6.26,3.66-12.57,7.27-19.17,10.38c-3.29,1.56-6.67,2.97-10.11,4.17c-3.44,1.22-6.97,2.2-10.55,2.93
				c-3.58,0.72-7.23,1.16-10.88,1.24c-1.83,0.03-3.66-0.02-5.47-0.15c-1.81-0.13-3.6-0.27-5.37-0.15c-1.77,0.12-3.51,0.5-5.02,1.41
				c-1.5,0.87-2.78,2.22-3.27,3.88c-0.49,1.67-0.08,3.49,0.76,5.04c0.84,1.57,2.01,2.96,3.21,4.3c2.4,2.7,4.9,5.35,7.78,7.53
				c2.87,2.21,6.2,3.75,9.68,4.74c3.48,1,7.08,1.53,10.66,2.03L99.78,163.51z"/>
			<path class="st6" d="M57.1,139.11c0.48-2.99,3.66-5.1,7.23-5.58c3.01-0.41,6.03-0.29,9.06-0.16c10.92,0.48,21.74-2.58,31.72-7.04
				c9.98-4.46,19.27-10.29,28.75-15.72c2.13-1.22,4.28-2.43,6.61-3.19c3.02-0.99,6.23-1.22,9.4-1.43
				c3.87-0.27,13.74,2.86,17.29,4.42c0,0-20.36-7.19-30.62,1.49c-12.67,10.72-26.78,18.12-43.15,21.97
				c-8.92,2.09-21.13-0.21-27.41,0.76C58.32,135.81,56.94,140.08,57.1,139.11"/>
			<path class="st5" d="M143.92,163.48c-0.88-0.84-1.4-2-1.43-3.17c-0.81,0.94-1.62,1.89-2.43,2.83c-0.79-1.35-1.58-2.71-2.37-4.06
				c-3,0.82-6,1.63-8.99,2.45c1.69-1.88,3.14-3.95,4.31-6.16c-4.49,1.4-9.31,1.89-14.02,1.41c1.52-1.8,2.33-4.11,2.23-6.4
				c-5.1,3.1-7.37,3.85-13.36,4.87c1.35-4.26-1.41-4.58-2.58-6.79c-5.13,2.74-8.2,2.2-13.41-0.42c-5.2-2.62-5.56-5.83-10.82-8.35
				c-5.26-2.52-13.09-1.83-18.03,1.21c0,0-3.54,1.95,6.21,8.03c9.75,6.08,8.24,6.88,29.37,9.96c21.13,3.09,18.3,6.18,30.19,6
				C140.67,164.71,143.92,163.48,143.92,163.48"/>
			<path class="st0" d="M63.01,140.89c3.28-2.12,7.26-3.05,11.18-3.04c1.97,0.02,3.95,0.29,5.85,0.94c1.89,0.68,3.64,1.69,5.17,3.01
				c1.53,1.31,2.76,2.8,4.25,3.92c0.74,0.56,1.52,1.07,2.36,1.48c0.83,0.43,1.72,0.83,2.59,1.18c1.74,0.73,3.53,1.2,5.3,1.05
				c0.89-0.07,1.76-0.28,2.62-0.58c0.86-0.31,1.7-0.72,2.53-1.15l0.77-0.4l0.4,0.76c0.24,0.45,0.61,0.86,1.07,1.31
				c0.45,0.45,0.99,0.95,1.41,1.65c0.43,0.7,0.61,1.57,0.58,2.34c-0.02,0.78-0.19,1.49-0.39,2.16l-1-1.15
				c2.34-0.42,4.66-0.82,6.82-1.59c2.16-0.76,4.21-1.91,6.24-3.13l1.25-0.75l0.05,1.45c0.09,2.54-0.84,5.05-2.48,6.95l-0.53-1.32
				c2.3,0.25,4.62,0.26,6.92,0.06c2.31-0.2,4.6-0.63,6.82-1.29l1.52-0.45l-0.75,1.38c-1.23,2.25-2.75,4.34-4.49,6.21l-0.53-0.87
				c3.01-0.77,6.03-1.52,9.04-2.26l0.26-0.06l0.12,0.21l2.27,4.12l-0.35-0.03l2.51-2.77l0.21-0.23l0,0.31
				c-0.01,1.16,0.48,2.33,1.31,3.18c-0.89-0.79-1.48-1.94-1.55-3.17l0.21,0.07l-2.36,2.89l-0.19,0.23l-0.16-0.26l-2.47-4l0.38,0.15
				c-2.98,0.9-5.96,1.78-8.94,2.64l-1.72,0.5l1.18-1.37c1.62-1.87,3-3.92,4.13-6.1l0.77,0.93c-2.29,0.75-4.66,1.26-7.06,1.53
				c-2.4,0.27-4.83,0.28-7.23,0.06l-1.52-0.14l0.99-1.18c1.35-1.62,2.1-3.76,1.99-5.84l1.3,0.7c-2.05,1.25-4.19,2.48-6.54,3.32
				c-2.35,0.84-4.75,1.29-7.12,1.69l-1.43,0.24l0.43-1.39c0.18-0.57,0.31-1.14,0.32-1.67c0.02-0.53-0.08-0.99-0.33-1.41
				c-0.24-0.43-0.65-0.84-1.13-1.31c-0.47-0.47-0.99-1.03-1.36-1.73l1.17,0.36c-0.89,0.46-1.81,0.89-2.79,1.22
				c-0.98,0.32-2.01,0.56-3.06,0.62c-2.13,0.13-4.19-0.48-6-1.28c-0.92-0.4-1.79-0.83-2.67-1.32c-0.89-0.48-1.73-1.06-2.52-1.69
				c-1.59-1.28-2.81-2.85-4.17-4.13c-1.36-1.28-2.98-2.32-4.72-3.03c-1.76-0.7-3.66-1.05-5.57-1.15c-1.91-0.1-3.85,0.05-5.74,0.45
				C66.56,139.31,64.7,139.93,63.01,140.89"/>
			<path class="st1" d="M276.39,124.08c-1.68-2.94-4.88-14.9-28.86-23.24c-5.11-14.43-18.31-28.34-18.31-28.34
				c-1.03,1.45-6.85,17.86-7.66,19.47c-2.59-13.22-15.42-42.65-15.42-42.65c-2.76,18.52-4.72,17.19-12.74,29.22
				c-3.16,4.73-5.25,9.02-4.91,16.04c-6.39-3.3-4.4-16.81-4.4-16.81s-18.28,11.93-22.24,28.67c-11.14,6.46-20.78,16.27-22.59,31.08
				c-1.62,13.32,5.91,49.92,6.93,54.47c4.09,18.22,14.72,34.19,25.14,49.68c0,0,13.2,16.83,31.6,19.73
				c15.08,2.38,35.11-7.96,42.02-16.01c9.54-11.12,17.9-23.33,23.54-36.86c5.38-12.92,8.58-26.62,11.74-40.25
				c1.15-4.97,2.31-9.96,2.71-15.05C283.72,143.16,281.41,132.86,276.39,124.08"/>
			<path class="st0" d="M207.6,262.65c-1.64,0-3.25-0.11-4.81-0.36c-18.54-2.93-31.62-19.37-32.17-20.07l-0.04-0.05
				c-9.88-14.7-21.08-31.36-25.27-49.99c-0.09-0.39-8.69-40.44-6.94-54.77c1.58-13.03,9.22-23.64,22.69-31.56
				c4.17-16.69,21.78-28.35,22.53-28.84l1.67-1.09l-0.29,1.97c-0.02,0.12-1.53,10.77,2.57,14.89c0.06-5.97,1.94-10.02,5.09-14.74
				c1.72-2.58,3.14-4.51,4.39-6.22c4.42-6.02,6.07-8.27,8.21-22.63l0.46-3.09l1.25,2.86c0.49,1.13,11.3,25.99,14.84,40
				c0.47-1.23,1.04-2.77,1.63-4.34c2.56-6.83,4.42-11.74,5.06-12.64l0.63-0.89l0.75,0.79c0.54,0.57,13.16,13.96,18.36,28.26
				c21.39,7.55,26.26,17.88,28.34,22.3c0.23,0.49,0.43,0.91,0.59,1.2c5.09,8.9,7.46,19.44,6.66,29.66
				c-0.4,5.17-1.58,10.26-2.73,15.18c-3.12,13.44-6.35,27.34-11.79,40.39c-5.17,12.41-12.92,24.55-23.68,37.1
				C239.23,253.43,222.23,262.65,207.6,262.65 M172.05,241.14c0.57,0.71,13.5,16.61,31.02,19.38c14.67,2.32,34.51-7.92,41.2-15.71
				c10.64-12.4,18.3-24.38,23.39-36.62c5.38-12.91,8.59-26.74,11.7-40.11c1.13-4.86,2.29-9.88,2.69-14.91
				c0.77-9.87-1.52-20.04-6.43-28.64c-0.2-0.35-0.41-0.8-0.66-1.32c-2-4.25-6.69-14.2-27.71-21.52l-0.41-0.14l-0.14-0.41
				c-4.23-11.96-14.24-23.71-17.25-27.07c-0.99,2.27-2.94,7.49-4.33,11.19c-1.49,3.99-2.43,6.47-2.76,7.12l-1.18,2.34l-0.5-2.57
				c-2.07-10.57-10.87-31.88-14.14-39.6c-2,12.07-3.79,14.52-8.05,20.34c-1.24,1.69-2.65,3.61-4.35,6.16
				c-3.25,4.88-5.08,8.98-4.76,15.5l0.08,1.56l-1.39-0.71c-5.38-2.78-5.38-11.69-5.08-15.73c-4.48,3.32-17.12,13.68-20.27,27
				l-0.09,0.38l-0.34,0.19c-13.17,7.64-20.62,17.87-22.14,30.42c-1.52,12.47,5.17,46.43,6.91,54.16
				C151.17,210.08,162.26,226.58,172.05,241.14"/>
			<path class="st7" d="M244.56,245.39c9.37-11,17.58-23.08,23.11-36.46c5.28-12.78,8.42-26.34,11.53-39.82
				c1.13-4.91,2.27-9.85,2.66-14.89c0.77-9.97-1.27-20.86-6.2-29.54c-2.13-3.76-10.41-29.46-73.95-29.46c0,0-53.43,2.88-61.56,41.32
				c-0.88,4.18,7.81-16.42,24.23-25.56c9.51-5.3,27.67-3.3,41.14-3.05c71.59,1.29,65.69,49.66,54.99,89.29
				c-1.83,6.8-20.94,7.34-16.69,24.98C248.01,239.62,243.79,246.3,244.56,245.39"/>
			<polygon class="st8" points="185.48,254.56 196.04,249.38 204.47,241.02 216.05,241.02 225.19,249.5 232.47,250.44 
				224.07,264.37 197.25,266.69 189.39,262.61 			"/>
			<path class="st1" d="M224.86,268.64c-9.56,4.75-24.7,3.44-31.97,0.17c-7.27-3.27-9.04-9.46-11.62-16.16l-2.21-5.06
				c2.6,3.28,7.48-0.96,12.1-1.14c4.02-0.16,12.33,5.28,16.39,5.33c5.94,0.08,10.06-3.01,14.23-4.03c4.36-1.06,5.36,6.68,11.74,5.01
				c0,0,9.18-8.69,9.49-9.1C243.02,243.66,234.64,263.79,224.86,268.64"/>
			<path class="st9" d="M209.37,272.77c-6.7,0-13.11-1.29-16.91-3.01c-7.05-3.17-9.23-8.95-11.53-15.06
				c-0.21-0.56-0.42-1.12-0.64-1.68l-5.41-12.41l5.01,6.32c1.11,1.4,2.93,0.84,5.8-0.19c1.75-0.63,3.56-1.28,5.44-1.35
				c2.32-0.09,5.5,1.3,8.89,2.78c2.85,1.24,5.8,2.53,7.56,2.55c3.65,0.02,6.58-1.17,9.4-2.36c1.56-0.65,3.04-1.27,4.57-1.64
				c2.55-0.63,4.2,1.06,5.65,2.55c1.64,1.68,3.07,3.14,5.82,2.53c3.44-3.26,8.82-8.38,9.21-8.81l4.83-6.22l-3.05,7.3
				c-0.35,0.84-8.65,20.55-18.67,25.52C220.7,271.88,214.94,272.77,209.37,272.77 M181.19,249.85l1.04,2.38
				c0.24,0.61,0.45,1.18,0.66,1.74c2.24,5.94,4.17,11.07,10.43,13.88c6.6,2.97,21.47,4.62,31.07-0.15l0.47,0.94l-0.47-0.94
				c6.29-3.12,12.1-13.09,15.24-19.29c-1.8,1.71-3.83,3.64-5.38,5.11l-0.2,0.18l-0.26,0.07c-4.09,1.07-6.32-1.2-8.1-3.03
				c-1.44-1.48-2.33-2.3-3.65-1.98c-1.37,0.33-2.77,0.92-4.26,1.54c-2.88,1.2-6.14,2.59-10.24,2.52c-2.19-0.03-5.19-1.34-8.37-2.72
				c-3.02-1.32-6.14-2.68-7.97-2.61c-1.55,0.06-3.21,0.66-4.81,1.23C184.69,249.33,182.85,249.99,181.19,249.85"/>
			<path class="st1" d="M208.32,239.29c0,0-2.23,14.89,11.98,17.4c14.21,2.51,31.47-4.27,23.9-34.74"/>
			<path class="st9" d="M208.32,239.29c-0.09,3.18,0.45,6.37,1.75,9.15c0.67,1.38,1.53,2.65,2.61,3.7c1.07,1.05,2.34,1.88,3.71,2.49
				c1.37,0.62,2.85,0.97,4.36,1.23c1.53,0.25,3.07,0.39,4.61,0.39c3.08,0.01,6.17-0.45,8.98-1.6c2.81-1.15,5.3-3.01,7.1-5.46
				c1.8-2.44,2.93-5.38,3.5-8.43c0.59-3.06,0.67-6.22,0.49-9.37c-0.19-3.16-0.66-6.31-1.25-9.44c0.93,3.05,1.65,6.17,2.05,9.36
				c0.4,3.18,0.49,6.44,0.01,9.67c-0.47,3.21-1.54,6.44-3.48,9.17c-0.96,1.37-2.12,2.6-3.43,3.64c-1.31,1.04-2.78,1.87-4.32,2.52
				c-3.08,1.29-6.41,1.81-9.69,1.76c-1.64-0.02-3.28-0.18-4.89-0.46c-1.62-0.28-3.25-0.77-4.76-1.5c-3.06-1.42-5.5-4.14-6.63-7.25
				c-0.59-1.54-0.91-3.16-1.03-4.77C207.92,242.48,208,240.86,208.32,239.29"/>
			<path class="st6" d="M147.51,193.14c0,0,1.93,15.83,21.87,43.6v-6.75c0,0-5.89-14.72-12.76-36.85H147.51z"/>
			<path class="st1" d="M208.06,239.93c0,0,2.21,14.89-11.89,17.4c-14.1,2.51-30.08,1.14-26.21-34.37"/>
			<path class="st9" d="M208.06,239.93c0.32,1.59,0.39,3.24,0.28,4.87c-0.13,1.64-0.45,3.28-1.07,4.84
				c-1.16,3.15-3.69,5.87-6.82,7.25c-1.54,0.73-3.22,1.17-4.84,1.43c-1.61,0.28-3.24,0.5-4.89,0.62c-3.28,0.25-6.7,0.08-9.93-1.03
				c-1.61-0.56-3.15-1.36-4.5-2.42c-1.35-1.06-2.49-2.36-3.42-3.78c-1.86-2.85-2.83-6.1-3.37-9.34c-0.53-3.25-0.65-6.52-0.53-9.76
				c0.12-3.25,0.47-6.47,0.98-9.66c-0.17,3.23-0.28,6.45-0.19,9.67c0.1,3.21,0.37,6.41,1.03,9.52c0.64,3.1,1.71,6.12,3.43,8.67
				c1.72,2.55,4.24,4.45,7.14,5.41c2.9,0.98,6.08,1.11,9.22,0.92c1.57-0.11,3.15-0.31,4.72-0.56c1.56-0.26,3.05-0.58,4.46-1.18
				c1.4-0.6,2.7-1.41,3.8-2.46c1.1-1.05,2-2.32,2.68-3.72C207.6,246.39,208.16,243.16,208.06,239.93"/>
			<path class="st6" d="M169.95,223.16c-2.86,34.97,12.66,36.18,26.78,33.78c8.47-1.44,10.05-8.99,10.05-8.99s-2.67,6.7-10.22,6.55
				c-9.76-0.19-13.25,0.83-18.91-11.24C172.17,231.59,169.95,223.16,169.95,223.16"/>
			<path class="st8" d="M278.42,148.04h-60.28c-2.01,0-3.65,1.52-3.65,3.38v4.4c-6.57-3.29-12.72-0.26-12.72-0.26v-4.14
				c0-1.86-1.64-3.38-3.65-3.38h-60.28c-2.01,0-3.65,1.52-3.65,3.38v29.21c0,7.28,6.43,13.23,14.28,13.23h40.59
				c6.98,0,12.69-5.29,12.69-11.75v-18.63c7.43-3.97,12.72,0,12.72,0v17.71c0,6.97,6.16,12.67,13.68,12.67h37.12
				c9.22,0,16.76-6.98,16.76-15.52v-26.92C282.07,149.56,280.43,148.04,278.42,148.04"/>
			<path class="st9" d="M265.31,194.75h-37.12c-8.04,0-14.57-6.08-14.57-13.56v-17.23c-1.21-0.73-5.34-2.7-10.93,0.06v18.08
				c0,6.97-6.09,12.64-13.58,12.64H148.5c-8.37,0-15.18-6.33-15.18-14.12v-29.21c0-2.35,2.03-4.27,4.54-4.27h60.28
				c2.5,0,4.54,1.91,4.54,4.27v2.83c2.05-0.69,6.29-1.63,10.93,0.2v-3.03c0-2.35,2.04-4.27,4.54-4.27h60.28
				c2.5,0,4.54,1.91,4.54,4.27v26.92C282.96,187.38,275.04,194.75,265.31,194.75 M208.4,160.81c3.97,0,6.48,1.84,6.64,1.96
				l0.35,0.27v18.16c0,6.49,5.74,11.78,12.79,11.78h37.12c8.75,0,15.87-6.56,15.87-14.63v-26.92c0-1.37-1.24-2.48-2.75-2.48h-60.28
				c-1.52,0-2.76,1.11-2.76,2.48v5.84l-1.29-0.65c-6.1-3.06-11.86-0.28-11.92-0.26l-1.29,0.63v-5.57c0-1.37-1.24-2.48-2.75-2.48
				h-60.28c-1.52,0-2.75,1.11-2.75,2.48v29.21c0,6.8,6.01,12.33,13.39,12.33h40.59c6.51,0,11.8-4.87,11.8-10.86v-19.16l0.47-0.25
				C204,161.28,206.39,160.81,208.4,160.81"/>
			<path class="st6" d="M221.87,186.84c0,0-3.29-4.55-3.39-18.48c-0.08-11.12,0.54-15.17,9.71-14.59c9.17,0.59,19.76-0.56,7.43,5.58
				c-12.33,6.15-11.64,4.67-12.6,17.57C222.28,186.81,225.06,190.4,221.87,186.84"/>
			<path class="st6" d="M141.47,186.85c0,0-2.75-6.22-2.85-20.15c-0.08-11.12,0-13.51,9.17-12.92c9.17,0.59,22.5-0.81,10.17,5.34
				c-12.33,6.15-14.38,4.91-15.34,17.82C141.88,186.82,144.66,190.42,141.47,186.85"/>
			<path class="st7" d="M239.12,216.93c0,0,3.17,12.76-3.18,17.09c-6.35,4.33-11.09,0.89-19.75,5.53c-8.67,4.64-5.34,0.92-2.82-2.91
				c2.52-3.83,6.55-1.17,10.48-5.98C227.77,225.86,239.91,234.73,239.12,216.93"/>
			<path class="st1" d="M229.37,210.12c3.76,0.41,12.68,2.81,9.32,13.71c-1.44,4.65-8.37,6.47-9.81,6.25c0,0-15.75,3.49-17.01,8.93
				c-0.89,3.85-7.7,3.81-8.36,0.17c-0.34-1.84-2.98-2.58-4.78-3.74c-4.38-2.82-8.93-5.28-13.71-5.37c-1.46-0.03-8.37-1.59-9.81-6.25
				c-3.37-10.9,5.56-13.3,9.32-13.71"/>
			<path class="st10" d="M229.37,210.12c2.64,0.2,5.35,0.96,7.49,2.71c1.05,0.88,1.92,2.02,2.41,3.33c0.51,1.3,0.68,2.72,0.6,4.1
				c-0.08,1.39-0.35,2.72-0.76,4.06c-0.47,1.39-1.42,2.55-2.5,3.45c-1.09,0.9-2.32,1.59-3.6,2.12c-0.64,0.26-1.3,0.49-1.98,0.67
				c-0.34,0.09-0.69,0.16-1.04,0.22c-0.37,0.05-0.71,0.11-1.21,0.06l0.28-0.01c-3.33,0.82-6.66,1.87-9.79,3.24
				c-1.55,0.7-3.08,1.48-4.39,2.46c-0.65,0.49-1.24,1.04-1.65,1.64c-0.2,0.3-0.37,0.61-0.45,0.92l-0.08,0.3
				c-0.04,0.13-0.07,0.27-0.13,0.39c-0.1,0.26-0.22,0.51-0.37,0.74c-0.59,0.95-1.53,1.59-2.49,1.92c-0.97,0.34-1.99,0.44-3,0.31
				c-1-0.14-2.02-0.5-2.85-1.25c-0.41-0.37-0.76-0.85-0.97-1.38c-0.11-0.26-0.19-0.56-0.23-0.8c-0.02-0.12-0.07-0.24-0.13-0.36
				c-0.25-0.48-0.9-0.95-1.61-1.34c-0.72-0.41-1.52-0.78-2.32-1.26c-1.51-0.97-2.94-1.85-4.45-2.68c-1.5-0.81-3.05-1.53-4.65-2.04
				c-0.8-0.26-1.61-0.47-2.43-0.6c-0.41-0.08-0.82-0.11-1.24-0.16l-0.62-0.04l-0.35-0.02c-0.13-0.01-0.25-0.03-0.37-0.04
				c-1.85-0.3-3.55-0.9-5.18-1.75c-1.6-0.86-3.14-2.04-4.07-3.73c-0.23-0.42-0.41-0.87-0.54-1.32c-0.11-0.44-0.24-0.86-0.32-1.31
				c-0.2-0.88-0.3-1.78-0.34-2.68c-0.07-1.81,0.34-3.69,1.32-5.23c0.97-1.56,2.49-2.66,4.09-3.4c1.62-0.73,3.36-1.1,5.1-1.24
				c-1.73,0.26-3.41,0.78-4.94,1.57c-1.52,0.8-2.88,1.93-3.68,3.41c-0.82,1.46-1.07,3.17-0.95,4.84c0.07,0.84,0.2,1.67,0.42,2.49
				c0.09,0.41,0.24,0.81,0.35,1.22c0.13,0.38,0.29,0.74,0.49,1.08c0.82,1.36,2.19,2.38,3.67,3.12c1.49,0.73,3.15,1.25,4.75,1.46
				c0.1,0.01,0.19,0.02,0.28,0.02l0.3,0.01l0.69,0.03c0.46,0.05,0.92,0.07,1.36,0.15c0.91,0.13,1.79,0.35,2.66,0.6
				c1.74,0.52,3.39,1.26,4.97,2.08c1.57,0.81,3.12,1.77,4.55,2.68c0.7,0.41,1.49,0.77,2.29,1.22c0.4,0.23,0.81,0.47,1.21,0.79
				c0.4,0.31,0.8,0.71,1.09,1.24c0.15,0.26,0.26,0.56,0.31,0.86c0.04,0.19,0.08,0.31,0.14,0.46c0.12,0.28,0.29,0.52,0.53,0.74
				c0.47,0.43,1.17,0.7,1.89,0.79c1.44,0.2,3.09-0.3,3.76-1.39c0.08-0.14,0.16-0.28,0.21-0.43c0.04-0.07,0.05-0.15,0.08-0.23
				l0.09-0.33c0.15-0.53,0.41-1,0.7-1.42c0.59-0.84,1.31-1.47,2.05-2.03c1.5-1.11,3.12-1.91,4.76-2.61
				c3.3-1.38,6.67-2.38,10.14-3.16l0.14-0.03l0.14,0.02c0.16,0.03,0.49,0.01,0.78-0.03c0.3-0.04,0.61-0.1,0.91-0.17
				c0.61-0.14,1.22-0.33,1.82-0.55c1.19-0.45,2.33-1.04,3.32-1.81c0.98-0.77,1.82-1.72,2.25-2.85c0.42-1.18,0.74-2.48,0.86-3.74
				c0.11-1.27,0.04-2.57-0.36-3.78c-0.38-1.21-1.12-2.3-2.05-3.19c-0.95-0.88-2.1-1.55-3.32-2.05
				C231.98,210.67,230.68,210.32,229.37,210.12"/>
			<path class="st8" d="M199.56,235.89c0,0-4.1-2.8-6.19-6.92c-2.09-4.12-7.87-4.95-9.9-0.98c-1.24,2.44,0.85,2.98,5.39,4.3
				C191.73,233.13,194.74,236.28,199.56,235.89"/>
			<path class="st10" d="M198.74,236.22c-2.9,0-5.11-1.21-7.08-2.29c-1.01-0.56-1.97-1.08-2.88-1.35l-0.32-0.09
				c-3.12-0.91-5-1.46-5.51-2.64c-0.24-0.55-0.15-1.2,0.25-2c0.89-1.75,2.55-2.75,4.54-2.75h0.01c2.43,0,4.73,1.47,5.88,3.72
				c2.03,4,6.05,6.78,6.09,6.81l0.7,0.48l-0.84,0.07C199.29,236.21,199.01,236.22,198.74,236.22 M187.75,225.71
				c-1.77,0-3.23,0.88-4.01,2.42c-0.32,0.64-0.4,1.11-0.24,1.49c0.4,0.92,2.28,1.47,5.13,2.3l0.32,0.09c0.98,0.29,1.96,0.83,3,1.4
				c1.89,1.04,4.02,2.2,6.75,2.22c-1.27-1-3.99-3.36-5.59-6.52C192.06,227.05,189.96,225.71,187.75,225.71L187.75,225.71z"/>
			<path class="st8" d="M214.85,235.65c0,0,3.6-2.39,5.68-6.51c2.09-4.12,7.87-4.95,9.9-0.97c1.24,2.43-0.85,2.98-5.39,4.3
				C222.18,233.3,219.67,236.04,214.85,235.65"/>
			<path class="st10" d="M215.77,235.99c-0.3,0-0.62-0.01-0.94-0.04l-0.86-0.07l0.72-0.48c0.04-0.02,3.56-2.4,5.58-6.4
				c1.14-2.26,3.45-3.72,5.88-3.72h0.01c2,0,3.65,1,4.54,2.74c0.41,0.8,0.49,1.45,0.25,2c-0.51,1.18-2.39,1.73-5.51,2.64l-0.32,0.09
				c-0.9,0.26-1.78,0.73-2.71,1.22C220.62,234.92,218.6,235.99,215.77,235.99 M215.71,235.39c2.75,0,4.68-1.02,6.42-1.94
				c0.96-0.51,1.86-0.99,2.82-1.27l0.32-0.09c2.85-0.83,4.73-1.38,5.13-2.3c0.16-0.38,0.09-0.85-0.24-1.49
				c-0.78-1.54-2.25-2.42-4.01-2.42h-0.01c-2.2,0-4.3,1.33-5.34,3.39C219.24,232.36,216.88,234.47,215.71,235.39"/>
			<path class="st6" d="M184.53,210.11c0,0-9.34,0.74-9.54,8.85c-0.23,9.44,7.85,9.94,7.85,9.94s-3.77-2.89-1.58-10.79
				C182.95,212.03,184.53,210.11,184.53,210.11"/>
		</g>
		<g>
			<g>
				<path class="st11" d="M133.65,235.45c0,0,2.48,9.56-3.77,13.88c-6.25,4.32-8.83,19.21-4.96,22.89c3.86,3.68,0.74-1.65,0.64-4.96
					s-0.46-10.02,5.61-15.72c6.07-5.7,4.78-13.51,3.95-16.46C134.29,232.14,133.65,235.45,133.65,235.45z"/>
				<path class="st12" d="M126.62,273.75c-0.33,0-0.84-0.31-1.9-1.32c-1.47-1.4-2.14-4.42-1.84-8.28c0.41-5.25,2.72-12.2,6.83-15.04
					c6.02-4.16,3.68-13.49,3.66-13.59l-0.02-0.06l0.01-0.06c0.13-0.67,0.43-1.79,1.02-1.81c0.39-0.04,0.7,0.41,0.98,1.42
					c0.68,2.4,2.38,10.71-4.03,16.73c-5.82,5.46-5.63,11.82-5.53,15.24l0.01,0.27c0.03,1.15,0.46,2.61,0.8,3.77
					c0.45,1.53,0.7,2.37,0.24,2.65C126.8,273.72,126.72,273.75,126.62,273.75z M133.93,235.44c0.2,0.85,2.17,9.92-3.9,14.11
					c-3.96,2.74-6.2,9.5-6.6,14.63c-0.29,3.7,0.32,6.56,1.67,7.84c0.95,0.91,1.33,1.11,1.46,1.16c0.04-0.3-0.24-1.24-0.46-2
					c-0.35-1.2-0.79-2.69-0.82-3.91l-0.01-0.27c-0.1-3.5-0.29-10.02,5.7-15.66c6.19-5.81,4.53-13.85,3.88-16.18
					c-0.26-0.92-0.45-1.02-0.45-1.02C134.3,234.2,134.06,234.82,133.93,235.44z"/>
			</g>
			<g>
				<path class="st11" d="M137.05,234.44c0,0-5.79,4.05-6.71,7.81c-0.92,3.77,0.15,10.3,1.13,13.79c0.98,3.49-5.36,10.8-3.8,12.48
					c1.56,1.68,6.34-7.15,6.07-12.11c-0.28-4.96-3.49-10.57-1.01-14.34c2.48-3.77,5.79-7.08,5.79-7.63
					C138.52,233.89,137.05,234.44,137.05,234.44z"/>
				<path class="st12" d="M128.13,269.01c-0.25,0-0.48-0.1-0.66-0.3c-0.89-0.95,0.22-3.12,1.51-5.62c1.27-2.47,2.7-5.27,2.22-6.97
					c-0.98-3.47-2.08-10.04-1.14-13.93c0.93-3.83,6.58-7.81,6.82-7.98l0.06-0.03c0.36-0.13,1.24-0.42,1.63-0.15
					c0.13,0.09,0.21,0.24,0.21,0.41c0,0.33-0.44,0.88-1.73,2.43c-1.17,1.4-2.76,3.32-4.11,5.36c-1.56,2.36-0.77,5.5,0.06,8.83
					c0.44,1.77,0.9,3.6,1,5.34c0.23,4.21-3.25,11.59-5.41,12.51C128.44,268.97,128.28,269.01,128.13,269.01z M137.18,234.68
					c-0.44,0.31-5.72,4.14-6.58,7.63c-0.92,3.76,0.21,10.37,1.13,13.65c0.54,1.91-0.95,4.81-2.27,7.37c-1.09,2.13-2.22,4.33-1.6,5
					c0.09,0.1,0.23,0.18,0.51,0.06c1.81-0.77,5.31-7.76,5.08-11.97c-0.09-1.69-0.54-3.5-0.98-5.24c-0.86-3.45-1.67-6.7,0.01-9.27
					c1.36-2.07,2.97-4,4.14-5.41c0.72-0.86,1.46-1.75,1.58-2.04C138.05,234.44,137.59,234.53,137.18,234.68z"/>
			</g>
			<g>
				<path class="st11" d="M135.37,233.36c0,0,2.14,7.42,1.68,10.36c-0.46,2.94-4.1,6.74-1.68,9.94c2.42,3.21-1.95,8.72-0.82,9.55
					s1.95-0.83,3.06-4.96c1.1-4.14-1.84-5.15-1.1-7.63s2.67-4.96,2.67-7.81C139.16,239.95,138.19,231.64,135.37,233.36z"/>
				<path class="st12" d="M135.08,263.7c-0.23,0-0.47-0.09-0.7-0.26c-0.6-0.44-0.2-1.51,0.35-2.97c0.76-2.02,1.81-4.79,0.41-6.63
					c-1.73-2.3-0.54-4.87,0.51-7.14c0.5-1.08,0.97-2.1,1.12-3.02c0.45-2.85-1.65-10.17-1.67-10.25l-0.06-0.2l0.18-0.11
					c0.68-0.42,1.23-0.28,1.56-0.09c2.02,1.14,2.65,7.56,2.65,9.77c0,1.88-0.8,3.58-1.57,5.22c-0.44,0.92-0.85,1.8-1.11,2.68
					c-0.29,0.99,0.05,1.71,0.49,2.62c0.56,1.15,1.25,2.59,0.61,5c-0.96,3.58-1.62,5.03-2.47,5.32
					C135.29,263.68,135.19,263.7,135.08,263.7z M135.69,233.5c0.35,1.27,2.05,7.55,1.63,10.27c-0.16,0.99-0.64,2.05-1.16,3.16
					c-1.04,2.23-2.11,4.54-0.57,6.57c1.57,2.09,0.47,5.02-0.34,7.16c-0.38,1-0.81,2.14-0.54,2.34c0.25,0.19,0.41,0.16,0.51,0.13
					c0.78-0.28,1.54-2.79,2.12-4.94c0.59-2.21-0.03-3.49-0.57-4.62c-0.45-0.94-0.88-1.82-0.53-3.02c0.27-0.92,0.69-1.81,1.14-2.75
					c0.75-1.59,1.52-3.23,1.52-4.98c0-2.86-0.79-8.4-2.37-9.29C136.26,233.37,135.99,233.36,135.69,233.5z"/>
			</g>
			<g>
				<path class="st13" d="M161.46,14.55l0.08-0.65c0.09-0.67,1.08-0.61,1.08,0.07l0,0.66c0,0.64,0.91,0.75,1.07,0.13l0.16-0.64
					c0.17-0.66,1.15-0.47,1.06,0.2l-0.08,0.65c-0.08,0.63,0.81,0.86,1.04,0.27l0.24-0.61c0.25-0.63,1.2-0.32,1.03,0.33l-0.16,0.64
					c-0.16,0.62,0.69,0.96,1,0.4l0.32-0.58c0.33-0.6,1.23-0.17,0.98,0.46l-0.24,0.61c-0.24,0.59,0.57,1.04,0.94,0.52l0.39-0.53
					c0.4-0.55,1.24-0.02,0.91,0.58l-0.32,0.58c-0.31,0.56,0.43,1.1,0.87,0.63l0.45-0.48c0.47-0.5,1.23,0.14,0.83,0.69l-0.39,0.53
					c-0.38,0.52,0.29,1.14,0.79,0.74l0.51-0.42c0.52-0.43,1.21,0.29,0.74,0.79l-0.45,0.48c-0.44,0.47,0.15,1.17,0.69,0.83l0.55-0.35
					c0.57-0.36,1.16,0.44,0.64,0.88l-0.51,0.42c-0.49,0.41,0,1.18,0.58,0.91l0.59-0.28c0.61-0.29,1.1,0.59,0.52,0.95l-0.55,0.35
					c-0.54,0.34-0.15,1.17,0.46,0.97l0.62-0.2c0.65-0.21,1.01,0.72,0.4,1.01l-0.59,0.28c-0.58,0.27-0.29,1.14,0.33,1.02l0.65-0.12
					c0.67-0.13,0.92,0.84,0.27,1.05l-0.62,0.2c-0.61,0.2-0.44,1.1,0.2,1.06l0.66-0.04c0.68-0.04,0.8,0.95,0.14,1.07l-0.65,0.12
					c-0.63,0.12-0.57,1.03,0.07,1.07l0.66,0.04c0.68,0.04,0.68,1.04,0,1.08l-0.66,0.04c-0.64,0.04-0.69,0.96-0.07,1.07l0.65,0.12
					c0.67,0.13,0.54,1.12-0.14,1.07l-0.66-0.04c-0.64-0.04-0.81,0.86-0.2,1.06l0.62,0.2c0.65,0.21,0.4,1.18-0.27,1.05l-0.65-0.12
					c-0.63-0.12-0.91,0.75-0.33,1.02l0.59,0.28c0.62,0.29,0.25,1.22-0.4,1.01l-0.62-0.2c-0.61-0.2-1,0.63-0.46,0.97l0.55,0.35
					c0.57,0.36,0.09,1.24-0.52,0.95l-0.59-0.28c-0.58-0.27-1.07,0.5-0.58,0.91l0.51,0.42c0.52,0.43-0.06,1.24-0.64,0.88l-0.55-0.35
					c-0.54-0.34-1.12,0.36-0.69,0.83l0.45,0.48c0.47,0.5-0.22,1.22-0.74,0.79l-0.51-0.42c-0.49-0.41-1.16,0.22-0.79,0.74l0.39,0.53
					c0.4,0.55-0.37,1.19-0.83,0.69l-0.45-0.48c-0.44-0.47-1.18,0.07-0.87,0.63l0.32,0.58c0.33,0.6-0.52,1.13-0.91,0.58l-0.39-0.53
					c-0.37-0.52-1.18-0.07-0.94,0.52l0.24,0.61c0.25,0.63-0.65,1.06-0.98,0.46l-0.32-0.58c-0.31-0.56-1.16-0.22-1,0.4l0.16,0.64
					c0.17,0.66-0.78,0.97-1.03,0.33l-0.24-0.61c-0.23-0.59-1.12-0.37-1.04,0.27l0.08,0.65c0.09,0.67-0.9,0.86-1.06,0.2l-0.16-0.64
					c-0.16-0.62-1.07-0.5-1.07,0.13l0,0.66c0,0.68-1,0.74-1.08,0.07l-0.08-0.65c-0.08-0.63-1-0.63-1.08,0l-0.08,0.65
					c-0.09,0.67-1.08,0.61-1.08-0.07l0-0.66c0-0.64-0.91-0.75-1.07-0.13l-0.16,0.64c-0.17,0.66-1.15,0.47-1.06-0.2l0.08-0.65
					c0.08-0.63-0.81-0.86-1.04-0.27l-0.24,0.61c-0.25,0.63-1.2,0.32-1.03-0.33l0.16-0.64c0.16-0.62-0.69-0.96-1-0.4l-0.32,0.58
					c-0.33,0.6-1.23,0.17-0.98-0.46l0.24-0.61c0.24-0.59-0.57-1.04-0.94-0.52l-0.39,0.53c-0.4,0.55-1.24,0.02-0.91-0.58l0.32-0.58
					c0.31-0.56-0.43-1.1-0.87-0.63l-0.45,0.48c-0.47,0.5-1.23-0.14-0.83-0.69l0.39-0.53c0.38-0.52-0.29-1.14-0.79-0.74l-0.51,0.42
					c-0.52,0.43-1.21-0.29-0.74-0.79l0.45-0.48c0.44-0.47-0.15-1.17-0.69-0.83l-0.55,0.35c-0.57,0.36-1.16-0.44-0.64-0.88l0.51-0.42
					c0.49-0.41,0-1.18-0.58-0.91l-0.59,0.28c-0.61,0.29-1.1-0.59-0.52-0.95l0.55-0.35c0.54-0.34,0.15-1.17-0.46-0.97l-0.62,0.2
					c-0.65,0.21-1.01-0.72-0.4-1.01l0.59-0.28c0.58-0.27,0.29-1.14-0.33-1.02l-0.65,0.12c-0.67,0.13-0.92-0.84-0.27-1.05l0.62-0.2
					c0.61-0.2,0.44-1.1-0.2-1.06l-0.66,0.04c-0.68,0.04-0.8-0.95-0.14-1.07l0.65-0.12c0.63-0.12,0.57-1.03-0.07-1.07l-0.66-0.04
					c-0.68-0.04-0.68-1.04,0-1.08l0.66-0.04c0.64-0.04,0.69-0.96,0.07-1.07l-0.65-0.12c-0.67-0.13-0.54-1.12,0.14-1.07l0.66,0.04
					c0.64,0.04,0.81-0.86,0.2-1.06l-0.62-0.2c-0.65-0.21-0.4-1.18,0.27-1.05l0.65,0.12c0.63,0.12,0.91-0.75,0.33-1.02l-0.59-0.28
					c-0.62-0.29-0.25-1.22,0.4-1.01l0.62,0.2c0.61,0.2,1-0.63,0.46-0.97l-0.55-0.35c-0.57-0.36-0.09-1.24,0.52-0.95l0.59,0.28
					c0.58,0.27,1.07-0.5,0.58-0.91l-0.51-0.42c-0.52-0.43,0.06-1.24,0.64-0.88l0.55,0.35c0.54,0.34,1.12-0.36,0.69-0.83l-0.45-0.48
					c-0.47-0.5,0.22-1.22,0.74-0.79l0.51,0.42c0.49,0.41,1.16-0.22,0.79-0.74l-0.39-0.53c-0.4-0.55,0.37-1.19,0.83-0.69l0.45,0.48
					c0.44,0.47,1.18-0.07,0.87-0.63l-0.32-0.58c-0.33-0.6,0.52-1.13,0.91-0.58l0.39,0.53c0.37,0.52,1.18,0.07,0.94-0.52l-0.24-0.61
					c-0.25-0.63,0.65-1.06,0.98-0.46l0.32,0.58c0.31,0.56,1.16,0.22,1-0.4l-0.16-0.64c-0.17-0.66,0.78-0.97,1.03-0.33l0.24,0.61
					c0.23,0.59,1.12,0.37,1.04-0.27l-0.08-0.65c-0.09-0.67,0.9-0.86,1.06-0.2l0.16,0.64c0.16,0.62,1.07,0.5,1.07-0.13l0-0.66
					c0-0.68,1-0.74,1.08-0.07l0.08,0.65C160.46,15.18,161.38,15.18,161.46,14.55z"/>
				<path class="st14" d="M162.08,51.63c-0.37,0-0.75-0.24-0.81-0.72l-0.08-0.65c-0.03-0.22-0.23-0.23-0.26-0.23h0
					c-0.04,0-0.24,0.01-0.26,0.23l-0.08,0.65c-0.06,0.5-0.48,0.74-0.86,0.71c-0.38-0.02-0.77-0.31-0.77-0.82v-0.66
					c0-0.22-0.19-0.26-0.23-0.26c-0.04-0.01-0.24-0.02-0.29,0.2l-0.16,0.64c-0.13,0.49-0.57,0.67-0.95,0.6
					c-0.38-0.07-0.72-0.41-0.66-0.91l0.08-0.65c0.03-0.22-0.16-0.28-0.2-0.29c-0.04-0.01-0.23-0.05-0.31,0.16l-0.24,0.61
					c-0.19,0.47-0.65,0.6-1.01,0.48c-0.36-0.12-0.67-0.49-0.54-0.98l0.16-0.64c0.06-0.22-0.12-0.3-0.16-0.31
					c-0.04-0.01-0.22-0.08-0.33,0.12l-0.32,0.58c-0.24,0.44-0.72,0.51-1.07,0.35c-0.35-0.16-0.6-0.57-0.41-1.04l0.24-0.61
					c0.08-0.21-0.09-0.31-0.12-0.33c-0.03-0.02-0.21-0.1-0.34,0.08l-0.39,0.53c-0.3,0.41-0.78,0.41-1.1,0.21
					c-0.32-0.2-0.52-0.64-0.28-1.09l0.32-0.58c0.11-0.2-0.05-0.32-0.08-0.34c-0.03-0.02-0.2-0.13-0.35,0.03l-0.45,0.48
					c-0.35,0.37-0.82,0.31-1.12,0.07c-0.29-0.24-0.44-0.7-0.14-1.11l0.39-0.53c0.13-0.18,0-0.32-0.03-0.35
					c-0.03-0.03-0.18-0.15-0.35-0.01l-0.51,0.42c-0.39,0.32-0.86,0.21-1.12-0.07c-0.26-0.28-0.35-0.75,0-1.12l0.45-0.48
					c0.15-0.16,0.04-0.32,0.01-0.35c-0.03-0.03-0.16-0.17-0.35-0.06l-0.55,0.35c-0.43,0.27-0.88,0.1-1.1-0.21
					c-0.22-0.31-0.25-0.79,0.14-1.11l0.51-0.42c0.17-0.14,0.08-0.32,0.06-0.35c-0.02-0.03-0.14-0.19-0.34-0.1l-0.59,0.28
					c-0.46,0.21-0.88-0.01-1.07-0.35c-0.18-0.33-0.15-0.81,0.28-1.09l0.55-0.35c0.19-0.12,0.12-0.3,0.1-0.34s-0.11-0.21-0.32-0.14
					l-0.62,0.2c-0.48,0.16-0.87-0.12-1.01-0.48c-0.14-0.36-0.04-0.83,0.41-1.04l0.59-0.28c0.2-0.1,0.15-0.29,0.14-0.32
					c-0.01-0.04-0.08-0.22-0.3-0.18l-0.65,0.12c-0.5,0.1-0.85-0.23-0.95-0.6c-0.1-0.37,0.06-0.83,0.54-0.98l0.62-0.2
					c0.21-0.07,0.19-0.27,0.18-0.3c-0.01-0.04-0.05-0.23-0.28-0.22l-0.66,0.04c-0.5,0.03-0.82-0.34-0.86-0.71
					c-0.05-0.38,0.16-0.81,0.66-0.91l0.65-0.12c0.22-0.04,0.22-0.24,0.22-0.28c0-0.04-0.03-0.24-0.25-0.25l-0.66-0.04
					c-0.5-0.03-0.77-0.43-0.77-0.82c0-0.38,0.26-0.79,0.77-0.82l0.66-0.04c0.22-0.01,0.25-0.21,0.25-0.25c0-0.04,0-0.24-0.22-0.28
					l-0.65-0.12c-0.5-0.09-0.71-0.53-0.66-0.91c0.05-0.38,0.36-0.75,0.86-0.71l0.66,0.04c0.22,0.01,0.27-0.18,0.28-0.22
					c0.01-0.04,0.03-0.23-0.18-0.3l-0.62-0.2c-0.48-0.16-0.64-0.61-0.54-0.98c0.1-0.37,0.45-0.7,0.95-0.6l0.65,0.12
					c0.22,0.04,0.29-0.14,0.3-0.18c0.01-0.04,0.06-0.23-0.14-0.32l-0.59-0.28c-0.46-0.21-0.55-0.69-0.41-1.04
					c0.14-0.36,0.53-0.63,1.01-0.48l0.62,0.2c0.21,0.07,0.31-0.1,0.32-0.14c0.02-0.04,0.09-0.22-0.1-0.34l-0.55-0.35
					c-0.43-0.27-0.46-0.75-0.28-1.09c0.18-0.33,0.61-0.56,1.07-0.35l0.59,0.28c0.2,0.1,0.32-0.07,0.34-0.1
					c0.02-0.03,0.12-0.21-0.06-0.35l-0.51-0.42c-0.39-0.32-0.37-0.8-0.14-1.11c0.22-0.31,0.67-0.48,1.1-0.21l0.55,0.35
					c0.19,0.12,0.32-0.03,0.35-0.06c0.03-0.03,0.14-0.19-0.01-0.35l-0.45-0.48c-0.35-0.37-0.26-0.84,0-1.12
					c0.26-0.28,0.73-0.39,1.12-0.07l0.51,0.42c0.17,0.14,0.32,0.02,0.35-0.01c0.03-0.03,0.17-0.17,0.03-0.35l-0.39-0.53
					c-0.3-0.41-0.15-0.87,0.14-1.11c0.29-0.24,0.77-0.3,1.12,0.07l0.45,0.48c0.15,0.16,0.32,0.06,0.35,0.03
					c0.03-0.02,0.18-0.15,0.08-0.34l-0.32-0.58c-0.24-0.44-0.04-0.88,0.28-1.09c0.32-0.2,0.8-0.2,1.1,0.21l0.39,0.53
					c0.13,0.18,0.31,0.1,0.34,0.08c0.03-0.02,0.2-0.12,0.12-0.33l-0.24-0.61c-0.19-0.47,0.07-0.88,0.41-1.04
					c0.34-0.16,0.82-0.1,1.07,0.35l0.32,0.58c0.11,0.2,0.3,0.13,0.33,0.12c0.04-0.01,0.22-0.1,0.16-0.31l-0.16-0.64
					c-0.13-0.49,0.18-0.86,0.54-0.98c0.36-0.12,0.83,0.01,1.01,0.48l0.24,0.61c0.08,0.21,0.28,0.17,0.31,0.16
					c0.04-0.01,0.23-0.07,0.2-0.29l-0.08-0.65c-0.06-0.5,0.28-0.84,0.66-0.91c0.37-0.07,0.82,0.11,0.95,0.6l0.16,0.64
					c0.06,0.22,0.25,0.2,0.29,0.2c0.04,0,0.23-0.04,0.23-0.27v-0.66c0-0.5,0.39-0.79,0.77-0.82c0.39-0.02,0.8,0.21,0.86,0.71
					l0.08,0.65c0.03,0.22,0.23,0.23,0.27,0.23c0.04,0,0.24-0.01,0.26-0.23l0.08-0.65c0.06-0.5,0.48-0.74,0.86-0.71
					c0.38,0.02,0.77,0.31,0.77,0.82v0.66c0,0.22,0.19,0.26,0.23,0.27c0.04,0.01,0.24,0.02,0.29-0.2l0.16-0.64
					c0.13-0.49,0.57-0.67,0.95-0.6c0.38,0.07,0.72,0.41,0.66,0.91l-0.08,0.65c-0.03,0.22,0.16,0.28,0.2,0.29
					c0.04,0.01,0.23,0.05,0.31-0.16l0.24-0.61c0.19-0.47,0.65-0.59,1.01-0.48c0.36,0.12,0.67,0.49,0.54,0.98l-0.16,0.64
					c-0.06,0.22,0.12,0.3,0.16,0.31c0.04,0.01,0.22,0.08,0.33-0.12l0.32-0.58c0.24-0.44,0.72-0.51,1.07-0.35
					c0.35,0.16,0.6,0.57,0.41,1.04l-0.24,0.61c-0.08,0.21,0.09,0.31,0.12,0.33c0.03,0.02,0.21,0.1,0.34-0.08l0.39-0.53
					c0.3-0.41,0.78-0.41,1.1-0.21c0.32,0.2,0.52,0.64,0.28,1.09l-0.32,0.58c-0.11,0.2,0.05,0.32,0.08,0.34
					c0.03,0.02,0.2,0.13,0.35-0.03l0.45-0.48c0.34-0.37,0.82-0.31,1.12-0.07c0.29,0.24,0.44,0.7,0.14,1.11l-0.39,0.53
					c-0.13,0.18,0,0.32,0.03,0.35c0.03,0.03,0.18,0.15,0.35,0.01l0.51-0.42c0.39-0.32,0.86-0.21,1.12,0.07
					c0.26,0.28,0.35,0.75,0,1.12l-0.45,0.48c-0.15,0.16-0.04,0.32-0.01,0.35c0.03,0.03,0.16,0.18,0.35,0.06l0.55-0.35
					c0.43-0.27,0.88-0.1,1.1,0.21c0.22,0.31,0.25,0.79-0.14,1.11l-0.51,0.42c-0.17,0.14-0.08,0.32-0.06,0.35
					c0.02,0.03,0.14,0.19,0.34,0.1l0.59-0.28c0.46-0.21,0.88,0.01,1.07,0.35c0.18,0.33,0.15,0.82-0.28,1.09l-0.55,0.35
					c-0.19,0.12-0.12,0.3-0.1,0.34c0.02,0.04,0.11,0.21,0.32,0.14l0.62-0.2c0.48-0.16,0.87,0.12,1.01,0.48
					c0.14,0.36,0.04,0.83-0.41,1.04l-0.59,0.28c-0.2,0.1-0.15,0.29-0.14,0.32c0.01,0.04,0.08,0.22,0.3,0.18l0.65-0.12
					c0.49-0.09,0.85,0.23,0.95,0.6c0.09,0.37-0.06,0.83-0.54,0.98l-0.62,0.2c-0.21,0.07-0.19,0.27-0.18,0.3
					c0.01,0.04,0.05,0.23,0.28,0.22l0.66-0.04c0.5-0.03,0.82,0.34,0.86,0.71c0.05,0.38-0.16,0.81-0.66,0.91L178.74,31
					c-0.22,0.04-0.22,0.24-0.22,0.28c0,0.04,0.03,0.24,0.25,0.25l0.66,0.04c0.5,0.03,0.77,0.43,0.77,0.82
					c0,0.38-0.26,0.79-0.77,0.82l-0.66,0.04c-0.22,0.01-0.25,0.21-0.25,0.25c0,0.04,0,0.24,0.22,0.28l0.65,0.12
					c0.5,0.09,0.71,0.53,0.66,0.91c-0.05,0.38-0.37,0.75-0.86,0.71l-0.66-0.04c-0.23-0.02-0.27,0.18-0.28,0.22
					c-0.01,0.04-0.03,0.23,0.18,0.3l0.62,0.2c0.48,0.16,0.64,0.61,0.54,0.98c-0.1,0.37-0.45,0.7-0.95,0.6L178,37.66
					c-0.22-0.04-0.29,0.14-0.3,0.18c-0.01,0.04-0.06,0.23,0.14,0.32l0.59,0.28c0.46,0.22,0.55,0.69,0.41,1.04
					c-0.14,0.36-0.53,0.63-1.01,0.48l-0.62-0.2c-0.21-0.07-0.31,0.1-0.32,0.14s-0.09,0.22,0.1,0.34l0.55,0.35
					c0.43,0.27,0.46,0.75,0.28,1.09c-0.18,0.33-0.61,0.56-1.07,0.35l-0.59-0.28c-0.2-0.09-0.32,0.07-0.34,0.1
					c-0.02,0.03-0.12,0.21,0.06,0.35l0.51,0.42c0.39,0.32,0.37,0.8,0.14,1.11c-0.22,0.31-0.67,0.48-1.1,0.21l-0.55-0.35
					c-0.19-0.12-0.32,0.03-0.35,0.06c-0.03,0.03-0.14,0.19,0.01,0.35l0.45,0.48c0.35,0.37,0.26,0.84,0,1.12
					c-0.26,0.28-0.73,0.39-1.12,0.07l-0.51-0.42c-0.17-0.14-0.32-0.02-0.35,0.01c-0.03,0.03-0.17,0.17-0.03,0.35l0.39,0.53
					c0.3,0.41,0.15,0.87-0.14,1.11c-0.29,0.24-0.77,0.3-1.12-0.07l-0.45-0.48c-0.15-0.16-0.32-0.06-0.35-0.03
					c-0.03,0.02-0.18,0.15-0.08,0.34l0.32,0.58c0.24,0.44,0.04,0.88-0.28,1.09c-0.32,0.2-0.8,0.2-1.1-0.21l-0.39-0.53
					c-0.13-0.18-0.31-0.1-0.34-0.08c-0.03,0.02-0.2,0.12-0.12,0.33l0.24,0.61c0.19,0.47-0.07,0.88-0.41,1.04
					c-0.35,0.16-0.82,0.1-1.07-0.35l-0.32-0.58c-0.11-0.2-0.3-0.13-0.33-0.12c-0.04,0.01-0.22,0.1-0.16,0.31l0.16,0.64
					c0.13,0.49-0.18,0.86-0.54,0.98c-0.36,0.12-0.83-0.01-1.01-0.48l-0.24-0.61c-0.08-0.21-0.28-0.17-0.31-0.16
					c-0.04,0.01-0.23,0.07-0.2,0.29l0.08,0.65c0.06,0.5-0.28,0.84-0.66,0.91c-0.38,0.07-0.82-0.11-0.95-0.6l-0.16-0.64
					c-0.06-0.22-0.25-0.2-0.29-0.2c-0.04,0-0.23,0.04-0.23,0.26v0.66c0,0.5-0.39,0.79-0.77,0.82
					C162.12,51.63,162.1,51.63,162.08,51.63z M158.67,49.34c0.04,0,0.07,0,0.11,0.01c0.42,0.05,0.72,0.39,0.72,0.81v0.66
					c0,0.24,0.21,0.26,0.25,0.27c0.04,0,0.25,0,0.28-0.23l0.08-0.65c0.05-0.42,0.39-0.72,0.81-0.72c0,0,0,0,0,0
					c0.42,0,0.76,0.29,0.81,0.72l0.08,0.65c0.03,0.24,0.24,0.24,0.28,0.23c0.04,0,0.25-0.03,0.25-0.27v-0.66
					c0-0.42,0.29-0.76,0.72-0.81c0.42-0.05,0.79,0.2,0.9,0.61l0.16,0.64c0.06,0.23,0.27,0.2,0.31,0.2c0.04-0.01,0.24-0.06,0.21-0.3
					l-0.08-0.65c-0.05-0.42,0.2-0.79,0.61-0.9c0.41-0.11,0.81,0.1,0.96,0.49l0.24,0.61c0.09,0.22,0.29,0.17,0.33,0.16
					c0.04-0.01,0.24-0.09,0.18-0.32l-0.16-0.64c-0.11-0.41,0.1-0.81,0.49-0.96c0.39-0.16,0.81-0.01,1.02,0.37l0.32,0.58
					c0.11,0.21,0.31,0.13,0.35,0.11c0.04-0.02,0.22-0.12,0.13-0.34l-0.24-0.61c-0.16-0.39-0.01-0.81,0.37-1.02
					c0.37-0.21,0.81-0.11,1.06,0.24l0.39,0.53c0.14,0.19,0.32,0.09,0.36,0.07c0.04-0.02,0.21-0.15,0.09-0.35l-0.32-0.58
					c-0.2-0.37-0.11-0.81,0.24-1.06c0.34-0.25,0.79-0.21,1.08,0.1l0.45,0.48c0.16,0.17,0.33,0.05,0.36,0.02
					c0.03-0.03,0.19-0.17,0.05-0.36l-0.39-0.53c-0.25-0.34-0.21-0.79,0.1-1.08c0.31-0.29,0.75-0.3,1.08-0.03l0.51,0.42
					c0.18,0.15,0.34,0.01,0.36-0.02c0.03-0.03,0.16-0.19,0-0.37l-0.45-0.48c-0.29-0.31-0.31-0.75-0.03-1.08
					c0.27-0.33,0.71-0.4,1.07-0.17l0.55,0.35c0.2,0.13,0.33-0.03,0.36-0.07c0.02-0.03,0.14-0.21-0.05-0.36l-0.51-0.42
					c-0.33-0.27-0.4-0.71-0.17-1.07c0.23-0.36,0.66-0.48,1.04-0.3l0.59,0.28c0.22,0.1,0.33-0.08,0.35-0.11
					c0.02-0.04,0.11-0.23-0.09-0.35l-0.55-0.35c-0.36-0.23-0.48-0.66-0.3-1.04c0.18-0.38,0.59-0.56,0.99-0.43l0.62,0.2
					c0.22,0.07,0.32-0.12,0.33-0.16c0.02-0.04,0.08-0.24-0.13-0.34l-0.59-0.28c-0.38-0.18-0.56-0.59-0.43-0.99
					c0.13-0.4,0.51-0.63,0.93-0.55l0.65,0.12c0.24,0.05,0.3-0.16,0.31-0.2c0.01-0.04,0.05-0.25-0.18-0.32l-0.62-0.2
					c-0.4-0.13-0.63-0.51-0.55-0.93c0.08-0.42,0.43-0.69,0.86-0.66l0.66,0.04c0.24,0.01,0.28-0.19,0.28-0.23
					c0.01-0.04,0.02-0.25-0.21-0.3l-0.65-0.12c-0.42-0.08-0.69-0.43-0.66-0.86c0.03-0.42,0.34-0.74,0.77-0.77l0.66-0.04
					c0.24-0.01,0.25-0.22,0.25-0.27c0-0.04-0.01-0.25-0.25-0.27l-0.66-0.04c-0.42-0.03-0.74-0.34-0.77-0.77
					c-0.03-0.42,0.25-0.78,0.66-0.86l0.65-0.12c0.23-0.04,0.22-0.25,0.21-0.3c-0.01-0.04-0.04-0.25-0.28-0.23l-0.66,0.04
					c-0.42,0.02-0.78-0.25-0.86-0.66c-0.08-0.42,0.15-0.8,0.55-0.93l0.62-0.2c0.23-0.07,0.19-0.28,0.18-0.32
					c-0.01-0.04-0.07-0.24-0.31-0.2l-0.65,0.12c-0.42,0.08-0.8-0.15-0.93-0.55c-0.13-0.4,0.05-0.81,0.43-0.99l0.59-0.28
					c0.22-0.1,0.15-0.3,0.13-0.34c-0.02-0.04-0.1-0.23-0.33-0.16l-0.62,0.2c-0.4,0.13-0.81-0.05-0.99-0.43
					c-0.18-0.38-0.06-0.81,0.3-1.04l0.55-0.35c0.2-0.13,0.11-0.32,0.09-0.35c-0.02-0.04-0.13-0.22-0.35-0.11l-0.59,0.28
					c-0.38,0.18-0.81,0.06-1.04-0.3c-0.23-0.36-0.16-0.8,0.17-1.07l0.51-0.42c0.18-0.15,0.07-0.33,0.05-0.36
					c-0.02-0.03-0.16-0.2-0.36-0.07l-0.55,0.35c-0.36,0.23-0.8,0.16-1.07-0.17c-0.27-0.33-0.26-0.77,0.03-1.08l0.45-0.48
					c0.16-0.17,0.03-0.34,0-0.37c-0.03-0.03-0.18-0.18-0.36-0.02l-0.51,0.42c-0.33,0.27-0.77,0.26-1.08-0.03
					c-0.31-0.29-0.35-0.73-0.1-1.08l0.39-0.53c0.14-0.19-0.01-0.34-0.05-0.36c-0.03-0.03-0.2-0.15-0.36,0.02l-0.45,0.48
					c-0.29,0.31-0.73,0.35-1.08,0.1c-0.34-0.25-0.44-0.68-0.24-1.06l0.32-0.58c0.11-0.21-0.06-0.33-0.09-0.35
					c-0.04-0.02-0.22-0.12-0.36,0.07l-0.39,0.53c-0.25,0.34-0.68,0.44-1.06,0.24c-0.37-0.2-0.52-0.62-0.37-1.02l0.24-0.61
					c0.09-0.22-0.1-0.32-0.13-0.34c-0.04-0.02-0.23-0.1-0.35,0.11l-0.32,0.58c-0.2,0.37-0.62,0.52-1.02,0.37
					c-0.39-0.16-0.6-0.55-0.49-0.96l0.16-0.64c0.06-0.23-0.14-0.31-0.18-0.32c-0.04-0.01-0.24-0.07-0.33,0.16l-0.24,0.61
					c-0.16,0.4-0.55,0.6-0.96,0.49c-0.41-0.11-0.66-0.47-0.61-0.9l0.08-0.65c0.03-0.24-0.17-0.29-0.21-0.3
					c-0.04-0.01-0.25-0.04-0.31,0.2l-0.16,0.64c-0.11,0.41-0.48,0.66-0.9,0.61c-0.42-0.05-0.72-0.39-0.72-0.81v-0.66
					c0-0.24-0.21-0.26-0.25-0.27c-0.04,0-0.25,0-0.28,0.23l-0.08,0.65c-0.05,0.42-0.39,0.72-0.81,0.72h0
					c-0.42,0-0.76-0.29-0.81-0.72l-0.08-0.65c-0.03-0.24-0.24-0.24-0.28-0.23c-0.04,0-0.25,0.03-0.25,0.27v0.66
					c0,0.42-0.29,0.76-0.72,0.81c-0.42,0.06-0.79-0.2-0.9-0.61l-0.16-0.64c-0.06-0.23-0.27-0.2-0.31-0.2
					c-0.04,0.01-0.24,0.06-0.21,0.3l0.08,0.65c0.05,0.42-0.2,0.79-0.61,0.9c-0.41,0.11-0.81-0.1-0.96-0.49l-0.24-0.61
					c-0.09-0.22-0.29-0.17-0.33-0.16c-0.04,0.01-0.24,0.09-0.18,0.32l0.16,0.64c0.11,0.41-0.1,0.81-0.49,0.96
					c-0.39,0.16-0.81,0.01-1.02-0.37l-0.32-0.58c-0.11-0.21-0.31-0.13-0.35-0.11c-0.04,0.02-0.22,0.12-0.13,0.34l0.24,0.61
					c0.16,0.39,0.01,0.81-0.37,1.02c-0.37,0.2-0.81,0.11-1.06-0.24l-0.39-0.53c-0.14-0.19-0.32-0.09-0.36-0.07
					c-0.04,0.02-0.21,0.14-0.09,0.35l0.32,0.58c0.2,0.37,0.11,0.81-0.24,1.06c-0.34,0.25-0.79,0.21-1.08-0.1l-0.45-0.48
					c-0.16-0.17-0.33-0.05-0.36-0.02c-0.03,0.03-0.19,0.17-0.05,0.36l0.39,0.53c0.25,0.34,0.21,0.79-0.1,1.08
					c-0.31,0.29-0.75,0.31-1.08,0.03l-0.51-0.42c-0.18-0.15-0.34-0.01-0.36,0.02c-0.03,0.03-0.16,0.19,0,0.37l0.45,0.48
					c0.29,0.31,0.31,0.75,0.03,1.08c-0.27,0.33-0.71,0.4-1.07,0.17l-0.55-0.35c-0.2-0.13-0.33,0.03-0.36,0.07
					c-0.02,0.03-0.14,0.21,0.05,0.36l0.51,0.42c0.33,0.27,0.4,0.71,0.17,1.07c-0.23,0.36-0.66,0.48-1.04,0.3l-0.59-0.28
					c-0.22-0.1-0.33,0.08-0.35,0.11c-0.02,0.04-0.11,0.23,0.09,0.35l0.55,0.35c0.36,0.23,0.48,0.66,0.3,1.04
					c-0.18,0.38-0.59,0.56-0.99,0.43l-0.62-0.2c-0.23-0.07-0.32,0.12-0.33,0.16c-0.02,0.04-0.08,0.24,0.13,0.34l0.59,0.28
					c0.38,0.18,0.56,0.59,0.43,0.99c-0.13,0.4-0.52,0.63-0.93,0.55l-0.65-0.12c-0.24-0.05-0.3,0.16-0.31,0.2
					c-0.01,0.04-0.05,0.25,0.18,0.32l0.62,0.2c0.4,0.13,0.63,0.51,0.55,0.93c-0.08,0.42-0.43,0.69-0.86,0.66l-0.66-0.04
					c-0.24-0.02-0.28,0.19-0.28,0.23c-0.01,0.04-0.02,0.25,0.22,0.3l0.65,0.12c0.42,0.08,0.69,0.43,0.66,0.86
					c-0.03,0.42-0.34,0.74-0.77,0.77l-0.66,0.04c-0.24,0.01-0.25,0.22-0.25,0.27c0,0.04,0.01,0.25,0.25,0.27l0.66,0.04
					c0.42,0.03,0.74,0.34,0.77,0.77c0.03,0.42-0.25,0.78-0.66,0.86l-0.65,0.12c-0.23,0.04-0.22,0.25-0.22,0.3
					c0.01,0.04,0.03,0.24,0.28,0.23l0.66-0.04c0.42-0.02,0.78,0.25,0.86,0.66c0.08,0.42-0.15,0.8-0.55,0.93l-0.62,0.2
					c-0.23,0.07-0.19,0.28-0.18,0.32c0.01,0.04,0.08,0.24,0.31,0.2l0.65-0.12c0.42-0.08,0.8,0.15,0.93,0.55
					c0.13,0.4-0.05,0.81-0.43,0.99l-0.59,0.28c-0.22,0.1-0.15,0.3-0.13,0.34c0.02,0.04,0.1,0.23,0.33,0.16l0.62-0.2
					c0.4-0.13,0.81,0.05,0.99,0.43c0.18,0.38,0.06,0.81-0.3,1.04l-0.55,0.35c-0.2,0.13-0.11,0.32-0.09,0.35
					c0.02,0.04,0.13,0.21,0.35,0.11l0.59-0.28c0.38-0.18,0.81-0.06,1.04,0.3c0.23,0.36,0.16,0.8-0.17,1.07l-0.51,0.42
					c-0.18,0.15-0.07,0.33-0.05,0.36c0.02,0.03,0.16,0.2,0.36,0.07l0.55-0.35c0.36-0.23,0.8-0.16,1.07,0.17
					c0.27,0.33,0.26,0.77-0.03,1.08l-0.45,0.48c-0.16,0.17-0.03,0.34,0,0.37c0.03,0.03,0.18,0.18,0.36,0.02l0.51-0.42
					c0.33-0.27,0.77-0.26,1.08,0.03c0.31,0.29,0.35,0.73,0.1,1.08l-0.39,0.53c-0.14,0.19,0.01,0.34,0.05,0.36
					c0.03,0.03,0.2,0.15,0.36-0.02l0.45-0.48c0.29-0.31,0.73-0.35,1.08-0.1c0.34,0.25,0.44,0.68,0.24,1.06l-0.32,0.58
					c-0.11,0.21,0.06,0.33,0.09,0.35c0.04,0.02,0.22,0.12,0.36-0.07l0.39-0.53c0.25-0.34,0.68-0.44,1.06-0.24
					c0.37,0.2,0.52,0.62,0.37,1.02l-0.24,0.61c-0.09,0.22,0.1,0.32,0.13,0.34c0.04,0.02,0.23,0.1,0.35-0.11l0.32-0.58
					c0.21-0.37,0.62-0.52,1.02-0.37c0.39,0.16,0.6,0.55,0.49,0.96l-0.16,0.64c-0.06,0.23,0.14,0.31,0.18,0.32
					c0.04,0.01,0.24,0.07,0.33-0.16l0.24-0.61c0.16-0.39,0.55-0.6,0.96-0.49c0.41,0.11,0.66,0.47,0.61,0.9l-0.08,0.65
					c-0.03,0.24,0.17,0.29,0.21,0.3c0.04,0.01,0.25,0.04,0.31-0.2l0.16-0.64C157.98,49.58,158.3,49.34,158.67,49.34z"/>
			</g>
			<g>
				<path class="st11" d="M132.96,233.54c0,0,4.96,1.94,7.35-2.85c4.37-8.75-3.33-29.4-3.67-40.66
					c-0.34-11.26-2.93-50.4,21.55-64.52s45.82-22.35,70.86-19.83c25.03,2.52,41.59,24.25,45.51,43.73s2.65,54.72,6.46,59.18
					c0,0,3.47-23.93,2.3-41.74c-1.18-17.81-2.52-77.49-24.7-86.71c-22.18-9.22-74.77-7.15-93.58,12.9s-36.96,36.18-39.82,51.89
					c-2.4,13.22,5.67,62.29,8.74,80.9C134.54,229.32,132.47,232.66,132.96,233.54z"/>
				<path class="st15" d="M135.26,234.2c-1.35,0-2.38-0.39-2.4-0.4l-0.09-0.04l-0.05-0.09c-0.25-0.46-0.03-1.21,0.3-2.35
					c0.42-1.45,1.01-3.45,0.67-5.46c-3.05-18.5-11.17-67.66-8.74-80.99c2.38-13.07,15.3-26.46,30.26-41.95
					c3.13-3.25,6.38-6.61,9.63-10.08c11.59-12.35,33.61-16.27,45.71-17.51c18.16-1.86,37.07-0.07,48.19,4.55
					c20.47,8.51,23.33,59.75,24.56,81.63c0.11,2.03,0.21,3.82,0.31,5.32c1.16,17.63-2.26,41.56-2.3,41.8l-0.09,0.6l-0.4-0.46
					c-2.07-2.42-2.67-13.39-3.36-26.1c-0.61-11.26-1.31-24.02-3.16-33.2c-3.97-19.75-20.8-41.04-45.27-43.51
					c-27.2-2.74-50.05,7.89-70.69,19.79c-23.2,13.37-21.94,49.08-21.47,62.52c0.02,0.64,0.04,1.23,0.06,1.75
					c0.12,4.04,1.19,9.27,2.32,14.82c2.04,9.98,4.15,20.3,1.32,25.97C139.18,233.58,136.96,234.2,135.26,234.2z M133.17,233.33
					c0.74,0.25,4.81,1.41,6.9-2.76c2.75-5.51,0.66-15.73-1.36-25.62c-1.14-5.57-2.21-10.82-2.33-14.91
					c-0.02-0.52-0.04-1.11-0.06-1.75c-0.48-13.53-1.74-49.48,21.75-63.02c20.72-11.94,43.66-22.61,71.02-19.86
					c24.74,2.49,41.74,23.99,45.76,43.95c1.86,9.22,2.55,22,3.17,33.28c0.64,11.74,1.2,21.99,2.85,25.18
					c0.56-4.14,3.24-25.11,2.19-40.96c-0.1-1.5-0.2-3.29-0.31-5.32c-1.22-21.78-4.06-72.77-24.22-81.15
					c-11.04-4.59-29.85-6.36-47.92-4.51c-20.45,2.09-36.98,8.41-45.36,17.34c-3.26,3.47-6.5,6.83-9.64,10.08
					c-14.9,15.43-27.76,28.76-30.11,41.67c-2.41,13.24,5.69,62.33,8.74,80.8c0.35,2.14-0.25,4.2-0.69,5.71
					C133.32,232.26,133.1,233,133.17,233.33z"/>
			</g>
			<g>
				<g>
					<polygon class="st13" points="137.05,221.01 141.54,220.41 141.66,223.76 137.17,224 					"/>
					<path class="st14" d="M136.9,224.29l-0.14-3.53l5.04-0.66l0.14,3.91L136.9,224.29z M137.34,221.25l0.1,2.46l3.94-0.22
						l-0.1-2.77L137.34,221.25z"/>
				</g>
				<g>
					<polygon class="st13" points="136.21,212.55 136.56,215.4 140.79,214.36 140.28,211.47 					"/>
					<path class="st14" d="M136.32,215.74l-0.41-3.4l4.6-1.22l0.6,3.44L136.32,215.74z M136.51,212.75l0.28,2.3l3.68-0.91
						l-0.41-2.34L136.51,212.75z"/>
				</g>
				<g>
					<polygon class="st13" points="134.92,204.1 135.39,206.96 139.23,206.13 138.72,203.6 					"/>
					<path class="st14" d="M135.17,207.29l-0.57-3.43l4.33-0.58l0.62,3.05L135.17,207.29z M135.24,204.34l0.38,2.29l3.29-0.71
						l-0.41-2.01L135.24,204.34z"/>
				</g>
				<g>
					<polygon class="st13" points="133.71,197.54 134.19,200.04 137.89,199.45 137.45,197.03 					"/>
					<path class="st14" d="M133.97,200.36l-0.59-3.06l4.29-0.58l0.54,2.96L133.97,200.36z M134.04,197.77l0.38,1.96l3.16-0.51
						l-0.34-1.89L134.04,197.77z"/>
				</g>
				<g>
					<polygon class="st13" points="132.74,189.87 132.73,191.95 136.76,191.95 136.63,189.62 					"/>
					<path class="st14" d="M137.06,192.23h-4.6l0.01-2.62l4.43-0.28L137.06,192.23z M133.01,191.68h3.46l-0.1-1.76l-3.36,0.21
						L133.01,191.68z"/>
				</g>
				<g>
					<polygon class="st13" points="133,182.62 132.89,185.06 136.49,185.21 136.49,182.84 					"/>
					<path class="st14" d="M136.76,185.49l-4.16-0.16l0.14-3l4.02,0.25V185.49z M133.18,184.8l3.03,0.12v-1.82l-2.95-0.18
						L133.18,184.8z"/>
				</g>
				<g>
					<polygon class="st13" points="133.29,177.4 133.17,179.52 136.41,179.7 136.42,177.57 					"/>
					<path class="st14" d="M136.68,179.99l-3.8-0.21l0.16-2.67l3.67,0.2L136.68,179.99z M133.46,179.26l2.67,0.14l0.01-1.57
						l-2.59-0.14L133.46,179.26z"/>
				</g>
				<g>
					<polygon class="st13" points="133.83,169.44 133.64,172.03 136.61,172.03 136.76,169.71 					"/>
					<path class="st14" d="M136.87,172.31h-3.52l0.23-3.17l3.48,0.33L136.87,172.31z M133.94,171.76h2.41l0.11-1.79l-2.38-0.23
						L133.94,171.76z"/>
				</g>
				<g>
					<polygon class="st13" points="134.33,162.96 134.16,165.07 137.17,165.31 137.46,162.96 					"/>
					<path class="st14" d="M137.41,165.61l-3.54-0.29l0.22-2.64h3.69L137.41,165.61z M134.46,164.81l2.47,0.2l0.22-1.78h-2.56
						L134.46,164.81z"/>
				</g>
				<g>
					<polygon class="st13" points="135.06,155.05 134.75,158.17 138.13,158.74 138.74,155.76 					"/>
					<path class="st14" d="M138.35,159.06l-3.9-0.66l0.36-3.68l4.25,0.83L138.35,159.06z M135.05,157.94l2.86,0.48l0.5-2.44
						l-3.11-0.61L135.05,157.94z"/>
				</g>
				<g>
					<polygon class="st13" points="136.1,147.72 135.55,150.68 139.91,151.17 140.75,148.51 					"/>
					<path class="st14" d="M140.11,151.47l-4.88-0.55l0.65-3.52l5.22,0.9L140.11,151.47z M135.88,150.44l3.84,0.43l0.67-2.14
						l-4.07-0.7L135.88,150.44z"/>
				</g>
				<g>
					<polygon class="st13" points="137.65,140.76 136.75,143.49 142.03,145.08 143.82,141.16 					"/>
					<path class="st14" d="M142.18,145.41l-5.78-1.74l1.06-3.2l6.79,0.44L142.18,145.41z M137.1,143.3l4.78,1.44l1.53-3.34
						l-5.56-0.36L137.1,143.3z"/>
				</g>
				<g>
					<polygon class="st13" points="140.75,129.03 139.11,131.77 146.17,137.1 149.11,133.13 					"/>
					<path class="st14" d="M146.22,137.49l-7.47-5.64l1.89-3.17l8.89,4.36L146.22,137.49z M139.48,131.7l6.63,5.01l2.58-3.48
						l-7.84-3.84L139.48,131.7z"/>
				</g>
				<g>
					<polygon class="st13" points="152.33,118.29 147.11,120.75 153.82,128.52 157.98,125.64 					"/>
					<path class="st14" d="M153.77,128.89l-7.11-8.24l5.75-2.7l5.95,7.76L153.77,128.89z M147.55,120.84l6.31,7.31l3.72-2.57
						l-5.33-6.95L147.55,120.84z"/>
				</g>
				<g>
					<polygon class="st13" points="159.65,115 164.51,121.97 169.68,119.24 163.31,110.87 					"/>
					<path class="st14" d="M164.42,122.33l-5.13-7.35l4.02-4.54l6.78,8.89L164.42,122.33z M160,115.02l4.6,6.59l4.67-2.47
						l-5.98-7.84L160,115.02z"/>
				</g>
				<g>
					<polygon class="st13" points="171.82,107.72 175.89,116.2 181.96,113.51 176.47,104.71 					"/>
					<path class="st14" d="M175.75,116.56l-4.29-8.94l5.09-3.3l5.8,9.31L175.75,116.56z M172.18,107.82l3.85,8.02l5.53-2.45
						l-5.17-8.3L172.18,107.82z"/>
				</g>
				<g>
					<polygon class="st13" points="186.09,101.1 189.46,110.65 195.77,108.68 191.62,99.28 					"/>
					<path class="st14" d="M189.29,110.99l-3.56-10.06l6.04-2l4.37,9.92L189.29,110.99z M186.44,101.28l3.19,9.03l5.76-1.8
						l-3.92-8.89L186.44,101.28z"/>
				</g>
				<g>
					<polygon class="st13" points="200.74,95.51 203.52,106.85 210.85,105.74 207.3,94.21 					"/>
					<path class="st14" d="M203.32,107.16L200.4,95.3l7.09-1.41l3.72,12.08L203.32,107.16z M201.07,95.73l2.66,10.81l6.76-1.02
						l-3.39-10.99L201.07,95.73z"/>
				</g>
			</g>
			<g>
				<g>
					<polygon class="st13" points="221.49,95.07 221.49,105.25 227.55,105.63 228.66,95.34 					"/>
					<path class="st14" d="M227.8,105.92l-6.58-0.41V94.79l7.75,0.29L227.8,105.92z M221.77,104.99l5.54,0.35l1.05-9.74l-6.59-0.24
						V104.99z"/>
				</g>
				<g>
					<polygon class="st13" points="241.16,99.85 237.88,107.45 244.05,109.79 247.31,100.53 					"/>
					<path class="st14" d="M244.21,110.15l-6.69-2.55l3.47-8.05l6.71,0.74L244.21,110.15z M238.25,107.29l5.63,2.14l3.06-8.67
						l-5.61-0.62L238.25,107.29z"/>
				</g>
				<g>
					<polygon class="st13" points="255.31,105.63 250.46,113.38 255.92,117.54 260.82,108.95 					"/>
					<path class="st14" d="M256.01,117.95l-5.92-4.51l5.13-8.19l5.98,3.6L256.01,117.95z M250.82,113.31l5.02,3.82l4.61-8.09
						l-5.05-3.04L250.82,113.31z"/>
				</g>
				<g>
					<polygon class="st13" points="267.35,117.54 261.29,122.9 264.6,127.07 271.3,122.31 					"/>
					<path class="st14" d="M264.55,127.44l-3.64-4.58l6.47-5.72l4.32,5.21L264.55,127.44z M261.66,122.94l2.99,3.76l6.24-4.44
						l-3.58-4.32L261.66,122.94z"/>
				</g>
				<g>
					<polygon class="st13" points="268,132.31 273.57,128.71 275.71,133.39 270.03,136.14 					"/>
					<path class="st14" d="M269.91,136.5l-2.27-4.29l6.04-3.91l2.39,5.22L269.91,136.5z M268.37,132.4l1.79,3.37l5.19-2.51
						l-1.9-4.15L268.37,132.4z"/>
				</g>
				<g>
					<polygon class="st13" points="272.43,141.81 278.93,140.01 279.66,142.95 273.57,145.33 					"/>
					<path class="st14" d="M273.4,145.7l-1.32-4.07l7.05-1.96l0.86,3.45L273.4,145.7z M272.78,142l0.96,2.97l5.59-2.19l-0.61-2.43
						L272.78,142z"/>
				</g>
				<g>
					<polygon class="st13" points="274.43,148.76 280.01,147.7 280.65,150.72 274.89,151.14 					"/>
					<path class="st14" d="M274.67,151.43l-0.56-2.89l6.12-1.16l0.76,3.59L274.67,151.43z M274.76,148.98l0.36,1.86l5.2-0.38
						l-0.52-2.44L274.76,148.98z"/>
				</g>
				<g>
					<polygon class="st13" points="275.76,156.9 279.99,156.51 280.65,158.74 276.1,159.83 					"/>
					<path class="st14" d="M275.86,160.17l-0.41-3.51l4.74-0.44l0.81,2.73L275.86,160.17z M276.06,157.15l0.27,2.33l3.97-0.95
						l-0.52-1.74L276.06,157.15z"/>
				</g>
				<g>
					<polygon class="st13" points="276.56,164.68 280.65,164.27 281.6,168.39 276.82,168.39 					"/>
					<path class="st14" d="M281.95,168.67h-5.38l-0.3-4.23l4.59-0.46L281.95,168.67z M277.08,168.11h4.18l-0.82-3.55l-3.58,0.36
						L277.08,168.11z"/>
				</g>
				<g>
					<polygon class="st13" points="277.15,172.67 281.6,173 282.17,176.07 277.36,176.07 					"/>
					<path class="st14" d="M282.5,176.34h-5.4l-0.24-3.97l4.98,0.36L282.5,176.34z M277.62,175.79h4.22l-0.47-2.54l-3.92-0.28
						L277.62,175.79z"/>
				</g>
				<g>
					<polygon class="st13" points="277.62,180.68 281.6,180.68 281.6,183.43 277.79,183.83 					"/>
					<path class="st14" d="M277.53,184.13l-0.2-3.72h4.55v3.27L277.53,184.13z M277.91,180.96l0.14,2.56l3.27-0.34v-2.22H277.91z"/>
				</g>
				<g>
					<polygon class="st13" points="278.02,187.79 278.2,191.51 282.17,190.3 282.17,187.79 					"/>
					<path class="st14" d="M277.95,191.88l-0.22-4.36h4.72v2.98L277.95,191.88z M278.31,188.07l0.16,3.07l3.43-1.05v-2.02H278.31z"
						/>
				</g>
				<g>
					<polygon class="st13" points="278.54,195.78 282.52,194.59 281.6,197.36 278.8,198.68 					"/>
					<path class="st14" d="M278.56,199.1l-0.31-3.52l4.7-1.4l-1.12,3.38L278.56,199.1z M278.84,195.98l0.2,2.28l2.34-1.1l0.71-2.15
						L278.84,195.98z"/>
				</g>
			</g>
			<path class="st13" d="M132.75,192.9c0,0,9.34,45.27,0.21,40.64c-0.89-0.45,0.47-4.86-0.23-7.72c-0.99-4.04-6.52-8.68-10.75-19.89
				c-7.23-19.13-2.24-37.25-4.65-45.61c-2.41-8.35-3.79-57.57,3.61-75.88s19.45-49.04,69.71-57.4s75.56,29.57,83.14,48.1
				s17.04,65.62,14.8,84.46c-2.24,18.84-7.57,48.16-7.57,48.16s1.03-41.76-4.3-62.02s-7.92-37.49-44.06-46.02s-37.18,1.2-40.11,1.05
				s-7.23,0.73-9.81,3.93c-2.58,3.2-4.13-1.78-6.54,0.71s-3.44,4.44-6.02,4.62c-2.58,0.18-5.85,1.42-6.37,3.91
				c-0.52,2.49-14.4,7.11-16.29,8c-1.89,0.89-6.77,5.82-7.45,12.54c-0.68,6.72-3.15,9.82-4.13,13.83
				C134.95,152.34,132.46,184.42,132.75,192.9z"/>
			<path class="st14" d="M134.17,234.15c-0.41,0-0.85-0.12-1.33-0.36c-0.61-0.31-0.5-1.45-0.34-3.19c0.14-1.48,0.31-3.32-0.03-4.71
				c-0.4-1.64-1.62-3.45-3.17-5.75c-2.15-3.2-5.1-7.57-7.57-14.11c-4.59-12.13-4.28-23.67-4.03-32.94
				c0.14-5.18,0.26-9.65-0.62-12.69c-2.46-8.52-3.89-57.47,3.62-76.06l0.18-0.44c7.38-18.26,19.73-48.81,69.74-57.12
				c22.01-3.66,41.45,1.06,57.79,14.03c15.56,12.34,23.12,28.06,25.64,34.25c7.25,17.74,17.12,65.29,14.82,84.6
				c-2.21,18.63-7.52,47.88-7.58,48.17l-0.55-0.06c0.01-0.42,0.97-41.95-4.29-61.94c-0.28-1.06-0.55-2.11-0.82-3.15
				c-4.8-18.58-8.95-34.63-43.04-42.68c-28.65-6.76-35.21-1.95-38.01,0.1c-0.78,0.57-1.35,0.98-2.05,0.95
				c-3.01-0.17-7.1,0.76-9.58,3.83c-1.5,1.85-2.79,1.17-3.83,0.61c-0.97-0.51-1.73-0.92-2.73,0.11c-0.54,0.55-1,1.07-1.44,1.57
				c-1.54,1.73-2.65,2.99-4.76,3.13c-2.61,0.18-5.64,1.41-6.12,3.69c-0.4,1.94-7.35,4.71-13.83,7.16c-1.24,0.47-2.22,0.84-2.62,1.03
				c-1.81,0.85-6.63,5.76-7.29,12.32c-0.44,4.33-1.62,7.19-2.66,9.71c-0.58,1.41-1.13,2.73-1.48,4.16
				c-1.01,4.11-3.46,36.24-3.18,44.47c0.37,1.81,7.52,36.91,2.31,40.89C134.99,234.02,134.6,234.15,134.17,234.15z M204.67,26.14
				c-4.53,0-9.19,0.4-13.97,1.19c-49.71,8.26-61.99,38.64-69.32,56.79l-0.18,0.44c-7.3,18.05-5.98,67.46-3.61,75.7
				c0.9,3.12,0.78,7.63,0.64,12.85c-0.24,9.22-0.55,20.7,4,32.73c2.45,6.48,5.38,10.82,7.51,14c1.58,2.34,2.82,4.18,3.25,5.92
				c0.37,1.49,0.19,3.38,0.05,4.89c-0.1,1.06-0.24,2.5,0.04,2.64c0.79,0.4,1.41,0.4,1.92,0.02c4.96-3.79-2.44-39.99-2.52-40.36
				l-0.01-0.05c-0.29-8.22,2.17-40.52,3.19-44.65c0.36-1.47,0.92-2.81,1.51-4.24c1.03-2.48,2.19-5.3,2.62-9.55
				c0.69-6.88,5.65-11.85,7.6-12.77c0.42-0.2,1.36-0.55,2.66-1.04c3.92-1.48,13.11-4.96,13.48-6.76c0.53-2.56,3.8-3.93,6.62-4.13
				c1.89-0.13,2.88-1.25,4.39-2.95c0.43-0.48,0.91-1.03,1.46-1.59c1.29-1.33,2.4-0.74,3.39-0.22c1.03,0.55,1.93,1.03,3.14-0.47
				c2.61-3.23,6.89-4.2,10.04-4.03c0.5,0.03,0.97-0.32,1.69-0.85c3.11-2.28,9.57-7.01,38.46-0.19c34.42,8.12,38.6,24.32,43.45,43.07
				c0.27,1.04,0.54,2.09,0.82,3.15c4.4,16.69,4.47,48.29,4.36,58.69c1.46-8.24,5.2-29.91,6.97-44.79
				c2.29-19.23-7.56-66.63-14.78-84.32c-2.51-6.14-10.02-21.76-25.48-34.02C235.4,31.2,220.85,26.14,204.67,26.14z"/>
			<g>
				<path class="st6" d="M117.17,158.18c0,0,3.65-12.14,6.79-19.47c3.14-7.33,8.5-15.93,8.5-15.93l-3.72-3.72l12.06-15.56l2.66,3.8
					l7.46-10.1l2.69,3.54l14.57-9.46l-1.05-4.92l16.71-9.89l-1.58-4.95c1.69-1.01,29.98-10.6,48.9-3.84l2.37,5.41
					c0,0,14.87,4.73,14.87,6.08s0,6.76,0,6.76s11.15,7.75,14.2,11.65l2.03-3.54l5.41,8.11l3.04-4.58l7.1,10.66l-2.03,4.04
					c0,0,6.99,9.67,7.67,12.03c0,0-1.22-7.38-3.15-16.59c-1.67-7.96-3.99-17.6-5.84-23.04l-9.16-6.87l0.34-5.41l-10.82-9.13
					l1.01-3.2c0,0-9.13-9-17.24-11.03l-1.01,2.4c0,0-8.79-6.08-13.18-6.08l-1.69,4.73c0,0-19.61-6.08-39.55,1.35l-3.04-6.08
					l-11.83,5.41l-3.53-3.86l-19.27,11.2l1.44,3.87c0,0-13.04,10.95-13.04,11.96s2.25,3.97,2.25,3.97s-12.85,12.9-22.31,38.25
					C116.21,116.17,114.43,139.11,117.17,158.18z"/>
			</g>
			<g>
				<path class="st14" d="M123.08,80.1c1.28-1.85,2.58-3.7,3.91-5.52c0.67-0.91,1.34-1.81,2.04-2.7c0.7-0.89,1.38-1.78,2.22-2.6
					l-0.08,0.2l-0.2-2.03l-0.01-0.12l0.09-0.09l4.65-4.71l0.19-0.19l0.25,0.14l1.84,1.01l-0.47,0.06l5.74-5.64l0.13,0.77l-2.49-1.16
					l-0.73-0.34l0.63-0.51l8.41-6.77l0.32-0.26l0.37,0.22l2.52,1.54l-0.72,0.04c1.75-1.37,3.53-2.67,5.38-3.89
					c0.92-0.61,1.87-1.2,2.86-1.74c0.99-0.54,1.99-1.05,3.1-1.43l-0.43,0.97l-1.26-2.79l-0.31-0.7l0.72-0.28l10.42-4.01l0.6-0.23
					l0.32,0.56l1.62,2.82l-0.98-0.32c1.07-0.47,2.13-0.9,3.21-1.31c1.08-0.41,2.17-0.8,3.26-1.16c2.2-0.71,4.44-1.32,6.79-1.66
					l-0.7,0.87l-0.18-2.14l-0.06-0.75l0.75-0.12c2.94-0.48,5.88-0.94,8.82-1.39l0.54-0.08l0.28,0.46l1.27,2.1l-0.91-0.35
					c1.15-0.31,2.25-0.51,3.39-0.67c1.13-0.16,2.27-0.25,3.41-0.29c1.14-0.04,2.29-0.02,3.43,0.08c1.14,0.08,2.28,0.28,3.41,0.5
					l-0.93,0.81l-0.23-2.87l-0.08-1.02l0.99,0.22l9.69,2.12l0.53,0.12l0.04,0.53l0.16,2.03l-0.69-0.66
					c0.81,0.05,1.56,0.14,2.34,0.25c0.77,0.12,1.53,0.27,2.29,0.45c0.76,0.19,1.51,0.42,2.26,0.7c0.74,0.3,1.46,0.65,2.15,1.1
					l-0.99,0.3l1.02-2.28l0.27-0.61l0.59,0.27l9.85,4.55l0.3,0.14l0.02,0.32l0.14,1.96l-0.24-0.4l5.73,3.9l-0.61,0.07l1.94-2.05
					l0.27-0.29l0.31,0.23c2.38,1.72,4.74,3.46,7.11,5.2l0.13,0.1l0.01,0.15l0.16,2.43l-0.12-0.22c2.33,1.79,4.58,3.66,6.79,5.59
					c2.21,1.93,4.32,3.96,6.32,6.1c-2.07-2.07-4.29-3.98-6.53-5.85c-2.25-1.86-4.57-3.65-6.93-5.36l-0.11-0.08l-0.01-0.14
					l-0.24-2.43l0.14,0.24c-2.42-1.67-4.84-3.33-7.24-5.02l0.58-0.06l-1.9,2.08l-0.27,0.29l-0.34-0.22l-5.8-3.8l-0.21-0.14
					l-0.02-0.26l-0.18-1.96l0.32,0.46l-9.94-4.37l0.87-0.33l-0.98,2.3l-0.31,0.72l-0.68-0.42c-1.19-0.74-2.58-1.21-4-1.56
					c-0.71-0.17-1.44-0.3-2.17-0.41c-0.73-0.1-1.48-0.19-2.19-0.22l-0.63-0.03l-0.05-0.63l-0.17-2.03l0.57,0.65l-9.71-2.06l0.91-0.8
					l0.24,2.86l0.09,1l-1.01-0.2c-1.06-0.2-2.12-0.39-3.2-0.45c-1.08-0.08-2.16-0.1-3.25-0.05c-1.08,0.04-2.17,0.14-3.24,0.3
					c-1.07,0.15-2.16,0.37-3.16,0.64l-0.6,0.16l-0.32-0.52l-1.28-2.1l0.82,0.38c-2.94,0.48-5.88,0.95-8.82,1.4l0.68-0.87l0.17,2.14
					l0.06,0.77l-0.76,0.1c-2.18,0.29-4.37,0.87-6.51,1.55c-1.07,0.35-2.14,0.72-3.2,1.11c-1.05,0.4-2.12,0.82-3.14,1.26l-0.64,0.28
					l-0.34-0.6l-1.61-2.83l0.93,0.33l-10.44,3.95l0.4-0.97l1.24,2.79l0.32,0.72l-0.75,0.25c-0.97,0.32-1.93,0.8-2.87,1.31
					c-0.94,0.51-1.87,1.08-2.79,1.65c-1.83,1.16-3.62,2.42-5.35,3.72l-0.36,0.27l-0.36-0.23l-2.5-1.59l0.69-0.04l-8.53,6.62
					l-0.1-0.85l2.47,1.2l0.62,0.3l-0.5,0.47l-5.86,5.52l-0.22,0.21l-0.25-0.15l-1.81-1.07l0.44-0.06l-4.79,4.57l0.08-0.21l0.14,2.03
					l0.01,0.12l-0.09,0.08c-0.8,0.73-1.52,1.62-2.24,2.48c-0.72,0.87-1.42,1.75-2.11,2.64C125.81,76.52,124.44,78.3,123.08,80.1z"/>
			</g>
			<g>
				<path class="st13" d="M116.39,151.91c0.59-2.5,1.34-4.96,2.16-7.39c0.83-2.43,1.76-4.83,2.79-7.18c1.03-2.35,2.17-4.67,3.45-6.9
					c1.27-2.24,2.68-4.41,4.25-6.46l0.04,0.5l-4.91-4.26l-0.3-0.26l0.25-0.32l16.78-21.18l0.53-0.67l0.45,0.73l2.66,4.35l-1.06-0.02
					l6.81-10.34l0.63-0.95l0.57,1l2.66,4.68l-1-0.25l12-7.67l-0.28,0.92l-2.1-4.88l-0.27-0.62l0.59-0.34l17.83-10.2l-0.37,0.92
					l-1.44-4.81l-0.19-0.62l0.55-0.31c2.08-1.16,4.18-2.03,6.35-2.84c2.16-0.8,4.36-1.47,6.59-2.04c4.46-1.13,9.01-1.86,13.59-2.19
					c2.29-0.16,4.59-0.25,6.88-0.21c1.15-0.01,2.29,0.07,3.44,0.1c1.14,0.08,2.29,0.13,3.43,0.25c4.57,0.42,9.1,1.19,13.55,2.28
					l0.4,0.1l0.12,0.39l1.86,5.85l-0.43-0.45c5.31,2,10.61,4.01,15.9,6.05l0.42,0.16l0,0.44l-0.05,6.39l-0.2-0.45l10.24,9.15
					l-0.8,0.17l1.9-4.18l0.35-0.78l0.48,0.7l6.64,9.72l-0.66,0.01l3.02-4.63l0.28-0.43l0.28,0.43l8.76,13.12l0.04,0.06l-0.02,0.07
					l-1.32,5.83l-0.02-0.09l4.45,5.84l-4.61-5.71l-0.03-0.04l0.01-0.05l1.18-5.86l0.03,0.13l-9.04-12.93l0.57-0.01l-2.92,4.69
					l-0.32,0.51l-0.35-0.49l-6.78-9.63l0.83-0.08l-1.85,4.21l-0.28,0.63l-0.53-0.46l-10.36-9.02l-0.2-0.17l0-0.27l-0.05-6.39
					l0.42,0.6c-5.32-1.95-10.64-3.93-15.95-5.91l-0.32-0.12l-0.11-0.33l-1.89-5.84l0.52,0.49c-4.39-1.05-8.85-1.79-13.34-2.18
					c-1.12-0.11-2.25-0.15-3.37-0.23c-1.13-0.03-2.25-0.1-3.38-0.08c-2.25-0.03-4.5,0.08-6.75,0.24c-4.49,0.35-8.95,1.08-13.3,2.2
					c-2.18,0.56-4.32,1.24-6.43,2c-2.09,0.77-4.2,1.65-6.1,2.69l0.37-0.93l1.42,4.82l0.18,0.61l-0.55,0.31l-17.87,10.12l0.32-0.95
					l2.07,4.89l0.25,0.58l-0.53,0.34l-12.04,7.62l-0.64,0.4l-0.37-0.65l-2.64-4.69l1.19,0.04l-6.93,10.26l-0.56,0.83l-0.51-0.85
					l-2.6-4.39l0.98,0.07l-17.05,20.97l-0.05-0.58l4.83,4.35l0.26,0.23l-0.21,0.27c-1.59,1.99-3.03,4.1-4.34,6.29
					c-1.31,2.19-2.49,4.46-3.57,6.79c-1.08,2.32-2.05,4.69-2.94,7.09C117.86,147,117.05,149.43,116.39,151.91z"/>
			</g>
			<g>
				<path class="st11" d="M138.81,237.93h-5.84c-0.82,0-1.5-0.67-1.5-1.5v-4.76c0-0.82,0.67-1.5,1.5-1.5h5.84
					c0.82,0,1.5,0.67,1.5,1.5v4.76C140.3,237.25,139.63,237.93,138.81,237.93z"/>
				<path class="st12" d="M138.12,238.2h-4.46c-1.36,0-2.46-1.11-2.46-2.46v-3.38c0-1.36,1.11-2.46,2.46-2.46h4.46
					c1.36,0,2.46,1.11,2.46,2.46v3.38C140.58,237.09,139.47,238.2,138.12,238.2z M133.66,230.44c-1.06,0-1.91,0.86-1.91,1.91v3.38
					c0,1.06,0.86,1.91,1.91,1.91h4.46c1.06,0,1.91-0.86,1.91-1.91v-3.38c0-1.06-0.86-1.91-1.91-1.91H133.66z"/>
			</g>
			<g>
				<path class="st11" d="M283.31,209.45c0,0-2.48,9.56,3.77,13.88c6.25,4.32,8.83,19.21,4.96,22.89c-3.86,3.68-0.74-1.65-0.64-4.96
					c0.09-3.31,0.46-10.02-5.61-15.72s-4.78-13.51-3.95-16.46C282.66,206.14,283.31,209.45,283.31,209.45z"/>
				<path class="st12" d="M290.33,247.75c-0.1,0-0.18-0.03-0.25-0.07c-0.46-0.28-0.21-1.12,0.24-2.65c0.34-1.17,0.77-2.62,0.8-3.77
					l0.01-0.27c0.1-3.42,0.29-9.78-5.53-15.24c-6.41-6.02-4.71-14.33-4.03-16.73c0.28-1.01,0.58-1.46,0.98-1.42
					c0.59,0.02,0.89,1.14,1.02,1.81l0.01,0.06l-0.02,0.06c-0.02,0.09-2.36,9.43,3.66,13.59c4.11,2.84,6.42,9.79,6.83,15.04
					c0.3,3.86-0.37,6.88-1.84,8.28C291.17,247.44,290.66,247.75,290.33,247.75z M282.52,208.14c0.01,0.02-0.17,0.16-0.42,1.02
					c-0.65,2.33-2.31,10.37,3.88,16.18c6,5.63,5.8,12.15,5.7,15.66l-0.01,0.27c-0.03,1.23-0.47,2.72-0.82,3.91
					c-0.22,0.76-0.5,1.7-0.46,2c0.13-0.04,0.51-0.25,1.46-1.16c1.35-1.28,1.95-4.14,1.67-7.84c-0.4-5.13-2.64-11.89-6.6-14.63
					c-6.07-4.19-4.1-13.26-3.9-14.11C282.9,208.83,282.66,208.22,282.52,208.14z"/>
			</g>
			<g>
				<path class="st11" d="M279.9,208.44c0,0,5.79,4.05,6.71,7.81s-0.15,10.3-1.13,13.79s5.36,10.8,3.8,12.48
					c-1.56,1.68-6.34-7.15-6.07-12.11c0.28-4.96,3.49-10.57,1.01-14.34c-2.48-3.77-5.79-7.08-5.79-7.63
					C278.43,207.89,279.9,208.44,279.9,208.44z"/>
				<path class="st12" d="M288.82,243.01c-0.15,0-0.31-0.03-0.47-0.1c-2.16-0.92-5.65-8.3-5.41-12.51c0.1-1.75,0.55-3.58,1-5.34
					c0.83-3.33,1.62-6.47,0.06-8.83c-1.34-2.04-2.94-3.96-4.11-5.36c-1.29-1.54-1.73-2.09-1.73-2.43c0-0.17,0.07-0.31,0.21-0.41
					c0.39-0.27,1.27,0.01,1.63,0.15l0.06,0.03c0.24,0.17,5.89,4.15,6.82,7.98c0.95,3.89-0.16,10.46-1.14,13.93
					c-0.48,1.7,0.96,4.5,2.22,6.97c1.29,2.51,2.4,4.67,1.51,5.62C289.3,242.91,289.07,243.01,288.82,243.01z M278.72,208.48
					c0.11,0.27,0.86,1.17,1.59,2.04c1.17,1.41,2.78,3.34,4.15,5.41c1.69,2.56,0.87,5.82,0.01,9.27c-0.44,1.74-0.89,3.55-0.98,5.24
					c-0.23,4.21,3.27,11.2,5.08,11.97c0.29,0.12,0.42,0.04,0.51-0.06c0.62-0.67-0.51-2.87-1.6-5c-1.31-2.56-2.8-5.46-2.27-7.37
					c0.92-3.28,2.05-9.89,1.13-13.65c-0.85-3.49-6.14-7.32-6.58-7.63C279.35,208.54,278.89,208.45,278.72,208.48z"/>
			</g>
			<g>
				<path class="st11" d="M281.59,207.36c0,0-2.14,7.42-1.68,10.36c0.46,2.94,4.1,6.74,1.68,9.94c-2.42,3.21,1.95,8.72,0.82,9.55
					s-1.95-0.83-3.06-4.96c-1.1-4.14,1.84-5.15,1.1-7.63c-0.74-2.48-2.67-4.96-2.67-7.81C277.79,213.96,278.76,205.64,281.59,207.36
					z"/>
				<path class="st12" d="M281.87,237.7c-0.11,0-0.21-0.02-0.31-0.05c-0.84-0.3-1.51-1.74-2.47-5.32c-0.64-2.41,0.05-3.85,0.61-5
					c0.44-0.91,0.79-1.63,0.49-2.62c-0.26-0.88-0.67-1.75-1.11-2.68c-0.77-1.64-1.57-3.34-1.57-5.22c0-2.21,0.63-8.63,2.65-9.77
					c0.34-0.19,0.88-0.33,1.56,0.09l0.18,0.11l-0.06,0.2c-0.02,0.07-2.12,7.4-1.67,10.25c0.14,0.92,0.62,1.94,1.12,3.02
					c1.05,2.27,2.24,4.84,0.51,7.13c-1.39,1.85-0.35,4.61,0.41,6.63c0.55,1.47,0.95,2.53,0.35,2.97
					C282.34,237.61,282.1,237.7,281.87,237.7z M280.85,207.41c-0.14,0-0.28,0.04-0.41,0.11c-1.58,0.89-2.37,6.43-2.37,9.29
					c0,1.76,0.77,3.4,1.52,4.98c0.44,0.94,0.86,1.83,1.14,2.75c0.35,1.2-0.07,2.08-0.53,3.02c-0.55,1.13-1.16,2.41-0.57,4.62
					c0.58,2.16,1.34,4.67,2.12,4.94c0.1,0.03,0.25,0.06,0.51-0.13c0.27-0.2-0.16-1.33-0.54-2.34c-0.81-2.14-1.91-5.07-0.34-7.16
					c1.53-2.03,0.46-4.34-0.57-6.57c-0.52-1.11-1.01-2.17-1.16-3.16c-0.43-2.72,1.27-9,1.63-10.27
					C281.12,207.44,280.98,207.41,280.85,207.41z"/>
			</g>
			<g>
				<path class="st11" d="M283.83,210.49h-5.84c-0.82,0-1.5-0.67-1.5-1.5v-4.76c0-0.82,0.67-1.5,1.5-1.5h5.84
					c0.82,0,1.5,0.67,1.5,1.5V209C285.33,209.82,284.65,210.49,283.83,210.49z"/>
				<path class="st12" d="M283.14,210.77h-4.46c-1.36,0-2.46-1.11-2.46-2.46v-3.38c0-1.36,1.11-2.46,2.46-2.46h4.46
					c1.36,0,2.46,1.11,2.46,2.46v3.38C285.6,209.66,284.5,210.77,283.14,210.77z M278.68,203.01c-1.05,0-1.91,0.86-1.91,1.91v3.38
					c0,1.06,0.86,1.91,1.91,1.91h4.46c1.06,0,1.91-0.86,1.91-1.91v-3.38c0-1.06-0.86-1.91-1.91-1.91H278.68z"/>
			</g>
			<path class="st16" d="M142.1,84.24c0,0-10.04,8.04-9.78,9.24c0.27,1.21,2.01,3.75,2.81,3.75s7.37-6.56,7.77-6.5
				s1.61,3.01,1.61,3.01s15-14.33,22.5-17.54c7.5-3.21,5.36-5.89,5.89-7.9c0.54-2.01,6.59-3.66,11.79-5.44
				c4.84-1.66,4.96-3.19,4.69-4.8c-0.27-1.61-1.21-3.05-3.88-2.78s-12.46,7.13-12.46,4.58c0-2.54,0.54-4.32-3.08-3.37
				c-3.62,0.96-25.85,16.36-26.92,19.57C141.97,79.28,145.39,81.52,142.1,84.24z"/>
			<path class="st6" d="M148.64,77.09c0,0,14.06-11.92,19.02-13.12c0,0,0.67,3.88,0,5.09s-10.04,4.29-13.39,9.24
				c-3.35,4.96-4.42,3.08-4.96,2.41S147.45,78.08,148.64,77.09z"/>
			<path class="st16" d="M233.93,56.86c0,0-11.93-1.5-12.01,0c-0.08,1.5-0.45,2.24,0.98,2.73s14.03,0.72,14.48,3.87
				c0.45,3.15-0.6,4.8,0.9,5.1c1.5,0.3,14.93,2.93,22.06,14.18c0,0,2.48,4.5,3.38,2.78c0.9-1.73-0.15-1.5,1.13-0.38
				c1.28,1.13,4.13,5.85,4.88,5.4c0.75-0.45,1.43-5.48,0.9-6c-0.53-0.53-8.55-7.88-8.63-8.85c-0.08-0.98,0.83-3.75,0.15-4.65
				s-10.28-10.65-26.71-17.18c0,0-1.88-0.53-1.58,0.98S233.93,56.86,233.93,56.86z"/>
			<path class="st6" d="M244.05,65.99c0,0-1.29-0.2-1.45-1.39c-0.15-1.2-0.53-4.01,0.72-3.86c1.26,0.15,15.63,10.25,16.24,11.44
				s-0.15,4.92-1.14,4.23C257.44,75.72,250.29,66.59,244.05,65.99z"/>
			<path class="st16" d="M202.92,45.48c0,0,0.04,4.33,0.48,5.91c0.49,1.74,7.4,1.75,7.62-0.36c0.22-2.11,0-6,0-6
				S206.02,44.7,202.92,45.48z"/>
			<path class="st16" d="M202.15,63.71c0.54,0-0.27-5.27,1.09-5.83s7.51-0.72,8.07,0c0.56,0.72,0.57,5.58,0.57,5.58L202.15,63.71z"
				/>
		</g>
	</g>
	<g>
		<path class="st1" d="M217.07,327.02c0,0,23.94-6.6,40.98-2.97c6.82,1.45,49.01-7.76,86.98,23.61c0,0-20.64,0-26.42,0
			c-13.14,0-18.99,0-15.69,0.83c3.56,0.89,12.07-0.24,17.72,2.3c13.85,6.21,16.26,13.57,15.28,17.18s-24.91,16.93-45.65,12.07
			c-7.5-1.76-14.41-11.63-20.41-13.24c-5.99-1.62-19.78,3.16-70.14-19.13c-23.09-10.22-19.92-20.96-18.27-20.12
			S217.07,327.02,217.07,327.02z"/>
	</g>
	<g>
		<path class="st0" d="M27.46,325.61c-1.75,14.01,2.79,28.86,11.78,38.52c-0.8-3.25-1.21-6.62-1.24-10
			c12.66,12.37,30.19,17.87,46.55,14.62c-6.08-0.67-11.9-4.07-15.97-9.33c17.33,11.12,38.17,14.76,57.59,10.07
			c-6.32-0.35-13.47-1.18-17.34-6.94c17.92,5.2,36.51,7.38,54.98,6.44c-2.69-1.78-5.38-3.55-8.07-5.33
			c11.09,5.21,23.41,6.91,35.26,4.87c-3.16,0.64-6.55-0.47-8.94-2.93c16.28,2.74,32.82,3.43,49.22,2.06
			c-2.89-1.51-5.55-3.61-7.83-6.16c11.37,2.76,22.98,4.24,34.6,4.39c-2.47-1.18-4.58-3.36-5.87-6.06c1.42-0.94,7.81-0.9,9.42-0.6
			c-1.25-2.78-6.43-6.39-6.08-9.49c1.96-0.46,8.57-3.04,10.39-2.07c-7.89-5.78-3.68-7.8,0.11-10.52
			c-10.08-4.37-10.87-9.29,0.61-13.42c3.35-2.01-40.35-0.78-49.97-0.77c1.45-1.51,2.89-3.02,4.34-4.53
			c-8.97-0.24-17.94-0.48-26.9-0.72c3.08-2.32,6.17-4.64,9.25-6.97c-11.33-0.21-22.67-0.27-34-0.19c1.59-2.16,3.18-4.32,4.77-6.47
			c-8.6,1.23-17.16,2.84-25.65,4.82c0.85-2.09,2.06-3.98,3.54-5.54c-9.76-0.3-19.56,1.34-28.85,4.82c1.3-3.11,3.05-5.96,5.16-8.4
			c-12.01,2.17-24.06,4.33-35.92,7.43c1.43-2.94,1.9-9.37,4.13-11.56c-14.54,3.93-25.91,5.98-40.45,9.91
			c0.17-3.56,3.19-6.65,5.41-9.14c-8.08,3.2-16.01,6.92-23.74,11.12c-0.66-4.17-3.7-2.75-2.56-6.79
			c-7.42,4.84-10.87,16.4-7.61,25.47"/>
	</g>
	<path class="st2" d="M295.73,370.6c0,0-14.64-6.8-11.75-17.13c2.89-10.33-6.85-25.38-6.85-25.38s-3.54,1.34,0,7.75
		c3.54,6.42,3.54,13.5,3.54,18.82S279.79,367.06,295.73,370.6z"/>
</g>
</svg>
